<?xml version="1.0" standalone="no"?>
<!DOCTYPE svg PUBLIC "-//W3C//DTD SVG 1.1//EN" "http://www.w3.org/Graphics/SVG/1.1/DTD/svg11.dtd" >
<svg>
<metadata>
Created by FontForge 20090914 at Fri Jun  1 13:49:12 2012
 By www-data
1995 Albert-Jan Pool, published by Fontshop International for the FontFont library.
</metadata>
<defs>
<font id="DIN-Regular" horiz-adv-x="522" >
  <font-face 
    font-family="DIN-Regular"
    font-weight="400"
    font-stretch="normal"
    units-per-em="1000"
    panose-1="2 11 5 0 0 0 0 0 0 0"
    ascent="800"
    descent="-200"
    x-height="492"
    cap-height="712"
    bbox="-104 -226 1115 985"
    underline-thickness="51"
    underline-position="-85"
    unicode-range="U+0020-U+F002"
  />
<missing-glyph horiz-adv-x="573" 
d="M413 87v538h-253v-538h253zM73 712h427v-712h-427v712z" />
    <glyph glyph-name=".notdef" horiz-adv-x="573" 
d="M413 87v538h-253v-538h253zM73 712h427v-712h-427v712z" />
    <glyph glyph-name="space" unicode=" " horiz-adv-x="249" 
 />
    <glyph glyph-name="exclam" unicode="!" horiz-adv-x="316" 
d="M215 712h-83l10 -512h62zM216 0v84h-86v-84h86z" />
    <glyph glyph-name="quotedbl" unicode="&#x22;" horiz-adv-x="423" 
d="M335 542v170h-79v-170h79zM167 542v170h-79v-170h79z" />
    <glyph glyph-name="numbersign" unicode="#" horiz-adv-x="653" 
d="M602 432v66h-87l34 215h-73l-34 -215h-159l35 215h-75l-34 -215h-101v-66h92l-23 -141h-100v-64h89l-36 -227h74l35 227h160l-36 -227h74l36 227h99v64h-89l23 141h96zM432 432l-23 -141h-159l23 141h159z" />
    <glyph glyph-name="dollar" unicode="$" horiz-adv-x="596" 
d="M540 196c0 59.333 -20.332 106.331 -60.999 140.998c-14.667 12.667 -31.5 22.834 -50.5 30.501s-45.167 14.167 -78.5 19.5l-31 5v259c28.667 -2 54.167 -8 76.5 -18s43.5 -24 63.5 -42l49 49c-28 24.667 -56.5 43.167 -85.5 55.5s-62.5 19.5 -100.5 21.5v89h-60v-89
c-62 -4.66699 -111 -25 -147 -61s-54 -82.333 -54 -139c0 -56 18.333 -100.333 55 -133c15.333 -13.333 34.5 -25 57.5 -35s47.167 -16.333 72.5 -19l20 -2v-265c-34 1.33301 -64.667 8 -92 20s-54 31 -80 57l-52 -52c31.333 -31.333 64.166 -54.333 98.499 -69
s74.833 -23 121.5 -25v-108h60v110c66.667 4.66699 119.667 24.834 159 60.501s59 82.167 59 139.5zM266.001 398.998c-18 2.66699 -35.5 7.16895 -52.5 13.502s-32.167 14.833 -45.5 25.5c-21.333 18.667 -32 46 -32 82c0 37.333 11.333 67.666 34 90.999
s54.667 36.666 96 39.999v-252zM464.001 194c0 -38 -12.833 -68.5 -38.5 -91.5s-61.167 -36.167 -106.5 -39.5v257l13 -2c23.333 -2.66699 42 -6.16699 56 -10.5s27.667 -12.5 41 -24.5c23.333 -20 35 -49.667 35 -89z" />
    <glyph glyph-name="percent" unicode="%" horiz-adv-x="833" 
d="M769 128v105c0 40.667 -12.667 73.334 -38 98.001s-57.666 37 -96.999 37s-71.666 -12.333 -96.999 -37s-38 -57.334 -38 -98.001v-105c0 -40.667 12.667 -73.334 38 -98.001s57.666 -37 96.999 -37s71.666 12.333 96.999 37s38 57.334 38 98.001zM712 130
c0 -27.333 -6.5 -48.668 -19.5 -64.001s-32.5 -23 -58.5 -23c-26.667 0 -46.334 7.5 -59.001 22.5s-19 36.5 -19 64.5v101c0 28 6.33301 49.5 19 64.5s32.334 22.5 59.001 22.5c26 0 45.5 -7.66699 58.5 -23s19.5 -36.666 19.5 -63.999v-101zM614 711.998h-60l-334 -712h60z
M335 478.998v105c0 40.667 -12.667 73.334 -38 98.001s-57.666 37 -96.999 37s-71.666 -12.333 -96.999 -37s-38 -57.334 -38 -98.001v-105c0 -40 12.667 -72.333 38 -97s57.666 -37 96.999 -37s71.666 12.333 96.999 37s38 57 38 97zM278 480.998
c0 -27.333 -6.50098 -48.501 -19.501 -63.501s-32.5 -22.5 -58.5 -22.5s-45.5 7.5 -58.5 22.5s-19.5 36.167 -19.5 63.5v101c0 28 6.33301 49.5 19 64.5s32.334 22.5 59.001 22.5c26 0 45.5 -7.66699 58.5 -23s19.5 -36.666 19.5 -63.999v-101z" />
    <glyph glyph-name="ampersand" unicode="&#x26;" horiz-adv-x="739" 
d="M671 0l-108.999 131.002c42.667 51.333 64.667 124 66 218h-72c-0.666992 -40 -3.83398 -71.667 -9.50098 -95s-15.834 -46 -30.501 -68l-182 219l26.5 18l26.5 18c24.667 17.333 44 36.166 58 56.499s21 43.833 21 70.5c0 42.667 -14.667 78.334 -44 107.001
s-66.333 43 -111 43c-45.333 0 -82.833 -14.167 -112.5 -42.5s-44.5 -63.833 -44.5 -106.5c0 -27.333 6.5 -52.5 19.5 -75.5s31.5 -48.5 55.5 -76.5l2 -3c-24 -16 -44.5 -30.5 -61.5 -43.5s-32.5 -27.833 -46.5 -44.5s-25.167 -35.334 -33.5 -56.001
s-12.5 -43.667 -12.5 -69c0 -62.667 20.333 -112.834 61 -150.501s95.334 -56.5 164.001 -56.5c49.333 0 90.833 8.5 124.5 25.5s62.167 36.5 85.5 58.5l64 -78h95zM395.001 568.002c0 -18.667 -5.5 -34.667 -16.5 -48s-26.833 -27 -47.5 -41l-18 -12.5
c-8 -5.66699 -14.667 -10.167 -20 -13.5c-24.667 30 -41.5 53 -50.5 69s-13.5 32 -13.5 48c0 24 7.66699 43.833 23 59.5s35 23.5 59 23.5s44 -8.16699 60 -24.5s24 -36.5 24 -60.5zM469.001 130.002c-28.667 -25.333 -56.5 -43.167 -83.5 -53.5s-55.167 -15.5 -84.5 -15.5
c-44 0 -80 13.167 -108 39.5s-42 60.5 -42 102.5c0 35.333 9.66699 64 29 86s49 46.667 89 74l4 3z" />
    <glyph glyph-name="quotesingle" unicode="'" horiz-adv-x="255" 
d="M167 542v170h-79v-170h79z" />
    <glyph glyph-name="parenleft" unicode="(" horiz-adv-x="298" 
d="M234 -45l-7.99902 8c-23.333 22.667 -38.666 41.667 -45.999 57c-10.667 21.333 -16 48.333 -16 81v510c0 32.667 5.33301 59.667 16 81c7.33301 15.333 22.666 34.333 45.999 57l8 8l-49 49l-6 -6c-16.667 -16.667 -29.834 -30.667 -39.501 -42s-18.5 -24 -26.5 -38
c-8 -14.667 -13.5 -30.5 -16.5 -47.5s-4.5 -35.5 -4.5 -55.5v-522c0 -20 1.5 -38.333 4.5 -55s8.5 -32.667 16.5 -48c7.33301 -14 15.833 -26.5 25.5 -37.5s23.167 -25.167 40.5 -42.5l6 -6z" />
    <glyph glyph-name="parenright" unicode=")" horiz-adv-x="298" 
d="M205 95l-0.000976562 522.001c0 22 -1.33301 41 -4 57s-8 31.333 -16 46c-7.33301 14 -15.833 26.5 -25.5 37.5s-23.167 25.167 -40.5 42.5l-6 6l-51 -51l11 -11c22 -21.333 36.667 -39.333 44 -54c9.33301 -18.667 14 -45 14 -79v-510c0 -34 -4.66699 -60.333 -14 -79
c-7.33301 -14.667 -22 -32.667 -44 -54l-11 -11l51 -51l6 6c16.667 16.667 29.834 30.667 39.501 42s18.5 24 26.5 38c8 14.667 13.333 30.167 16 46.5s4 35.166 4 56.499z" />
    <glyph glyph-name="asterisk" unicode="*" horiz-adv-x="474" 
d="M407 472l-120 65l120 66l-28 48l-117 -71l4 137h-58l4 -137l-116 71l-29 -48l120 -66l-120 -65l29 -49l116 71l-4 -137h58l-4 137l117 -71z" />
    <glyph glyph-name="plus" unicode="+" 
d="M470 234v67h-175v174h-67v-174h-176v-67h176v-176h67v176h175z" />
    <glyph glyph-name="comma" unicode="," horiz-adv-x="264" 
d="M176 -65v153h-88v-232z" />
    <glyph glyph-name="hyphen" unicode="-" horiz-adv-x="426" 
d="M350 236v67h-274v-67h274z" />
    <glyph glyph-name="period" unicode="." horiz-adv-x="270" 
d="M182 0v94h-94v-94h94z" />
    <glyph glyph-name="slash" unicode="/" horiz-adv-x="355" 
d="M356 786h-71l-285 -860h71z" />
    <glyph glyph-name="zero" unicode="0" 
d="M456 190v332c0 58 -18.5 105.167 -55.5 141.5s-83.5 54.5 -139.5 54.5s-102.5 -18.167 -139.5 -54.5s-55.5 -83.5 -55.5 -141.5v-332c0 -58 18.5 -105.167 55.5 -141.5s83.5 -54.5 139.5 -54.5s102.5 18.167 139.5 54.5s55.5 83.5 55.5 141.5zM384 194
c0 -40 -10.833 -72.667 -32.5 -98s-51.834 -38 -90.501 -38s-68.834 12.667 -90.501 38s-32.5 58 -32.5 98v324c0 40 10.833 72.667 32.5 98s51.834 38 90.501 38s68.834 -12.667 90.501 -38s32.5 -58 32.5 -98v-324z" />
    <glyph glyph-name="one" unicode="1" 
d="M330 0v712h-72l-133 -115v-82l133 117v-632h72z" />
    <glyph glyph-name="two" unicode="2" 
d="M461 0l-0.000976562 64.0029h-306l249 318c20.667 26 35.334 49.667 44.001 71s13 45.666 13 72.999c0 58 -18 104.5 -54 139.5s-83.333 52.5 -142 52.5s-106 -18 -142 -54s-54 -82.333 -54 -139h72c0 43.333 11.667 75.666 35 96.999s53 32 89 32
c38.667 0 69 -11.667 91 -35s33 -54.333 33 -93c0 -18.667 -3.16699 -36.334 -9.5 -53.001s-16.5 -34 -30.5 -52l-281 -357v-64h393z" />
    <glyph glyph-name="three" unicode="3" 
d="M460 194c0 88.667 -36.3311 146.671 -108.998 174.004c64 29.333 96 82 96 158c0 58 -18.167 104.667 -54.5 140s-83.5 53 -141.5 53c-55.333 0 -101.5 -16.333 -138.5 -49s-57.5 -77.334 -61.5 -134.001h72c3.33301 36.667 16.166 65.667 38.499 87s52.166 32 89.499 32
c36 0 65.667 -11.333 89 -34s35 -54.667 35 -96c0 -40.667 -10.5 -72.334 -31.5 -95.001s-52.833 -34 -95.5 -34h-15v-63h15c47.333 0 82.5 -12 105.5 -36s34.5 -58 34.5 -102c0 -42.667 -12.833 -76.334 -38.5 -101.001s-58.5 -37 -98.5 -37
c-37.333 0 -68.833 10.167 -94.5 30.5s-39.834 51.5 -42.501 93.5h-72c2.66699 -62 23.334 -108.833 62.001 -140.5s87.667 -47.5 147 -47.5c60.667 0 110.667 17.667 150 53s59 84.666 59 147.999z" />
    <glyph glyph-name="four" unicode="4" 
d="M482 113v65h-87v202h-71v-202h-207l257 534h-77l-257 -534v-65h284v-113h71v113h87z" />
    <glyph glyph-name="five" unicode="5" 
d="M462 235c0 40.667 -3.99512 76.8311 -11.9951 108.498s-23.667 59.167 -47 82.5c-30 30 -71 45 -123 45c-56 0 -98.667 -16.333 -128 -49v226h295v64h-360v-374h65c7.33301 21.333 21.333 38.333 42 51s46 19 76 19c24.667 0 45 -4.66699 61 -14
s28.333 -22.166 37 -38.499s14.5 -34.5 17.5 -54.5s4.5 -42 4.5 -66c0 -33.333 -2.33301 -61.666 -7 -84.999s-15.334 -43.333 -32.001 -60c-22 -22 -51.333 -33 -88 -33s-64.834 9.5 -84.501 28.5s-31.834 46.5 -36.501 82.5h-72c4 -52.667 20.667 -94 50 -124
c16 -16 36.333 -28.5 61 -37.5s52 -13.5 82 -13.5c59.333 0 106.666 17.667 141.999 53c23.333 23.333 38.666 50 45.999 80s11 66.333 11 109z" />
    <glyph glyph-name="six" unicode="6" 
d="M460 205c0 59.333 -17.001 107.832 -51.001 145.499s-78.667 56.5 -134 56.5c-28 0 -53 -5 -75 -15l159 320h-74l-175 -353c-15.333 -30.667 -26.666 -58.667 -33.999 -84s-11 -50.666 -11 -75.999c0 -62 18 -111.667 54 -149s84 -56 144 -56
c59.333 0 107 19.833 143 59.5s54 90.167 54 151.5zM387.999 201.999c0 -43.333 -11.499 -78.167 -34.499 -104.5s-53.5 -39.5 -91.5 -39.5s-68.333 13.167 -91 39.5s-34 61.166 -34 104.499c0 44 11.333 79 34 105s53 39 91 39c39.333 0 70.166 -13.667 92.499 -41
s33.5 -61.666 33.5 -102.999z" />
    <glyph glyph-name="seven" unicode="7" 
d="M471 648v64h-395v-176h71v112h248l-247 -648h76z" />
    <glyph glyph-name="eight" unicode="8" 
d="M471 196c0 39.333 -9.49707 73.501 -28.4971 102.501s-44.833 52.5 -77.5 70.5c29.333 16.667 52 38.167 68 64.5s24 57.5 24 93.5c0 55.333 -18.5 101 -55.5 137s-83.833 54 -140.5 54s-103.5 -18 -140.5 -54s-55.5 -81.667 -55.5 -137
c0 -36 8.16699 -67.167 24.5 -93.5s39.166 -47.833 68.499 -64.5c-32.667 -18.667 -58.667 -42.334 -78 -71.001s-29 -62.667 -29 -102c0 -29.333 5.33301 -56.5 16 -81.5s25.667 -46.5 45 -64.5s41.666 -31.833 66.999 -41.5s52.666 -14.5 81.999 -14.5
s56.833 4.83301 82.5 14.5s48 23.5 67 41.5s33.833 39.5 44.5 64.5s16 52.167 16 81.5zM385.003 526.001c0 -37.333 -11.5 -67.833 -34.5 -91.5s-52.833 -35.5 -89.5 -35.5s-66.5 11.833 -89.5 35.5s-34.5 54.167 -34.5 91.5s11.5 68 34.5 92s52.833 36 89.5 36
s66.5 -12 89.5 -36s34.5 -54.667 34.5 -92zM399.003 197.001c0 -39.333 -13.167 -72.333 -39.5 -99s-59.166 -40 -98.499 -40c-38.667 0 -71.334 13.333 -98.001 40s-40 59.667 -40 99s13.333 72.333 40 99s59.334 40 98.001 40c39.333 0 72.166 -13.333 98.499 -40
s39.5 -59.667 39.5 -99z" />
    <glyph glyph-name="nine" unicode="9" 
d="M457 513c0 62 -17.999 111.668 -53.999 149.001s-84 56 -144 56c-59.333 0 -107 -19.833 -143 -59.5s-54 -90.167 -54 -151.5c0 -58.667 17 -107 51 -145s78.333 -57 133 -57c28.667 0 54 5 76 15l-160 -320h75l175 353c15.333 30.667 26.666 58.667 33.999 84
s11 50.666 11 75.999zM385.001 510.001c0 -44 -11.5 -79 -34.5 -105s-53.5 -39 -91.5 -39c-39.333 0 -70 13.667 -92 41s-33 61.666 -33 102.999c0 44 11.333 79 34 105s53 39 91 39s68.5 -13.167 91.5 -39.5s34.5 -61.166 34.5 -104.499z" />
    <glyph glyph-name="colon" unicode=":" horiz-adv-x="297" 
d="M209 301v94h-94v-94h94zM209 0v94h-94v-94h94z" />
    <glyph glyph-name="semicolon" unicode=";" horiz-adv-x="297" 
d="M209 301v94h-94v-94h94zM205 -65v153h-88v-232z" />
    <glyph glyph-name="less" unicode="&#x3c;" horiz-adv-x="328" 
d="M40 268l210 210v-90l-120 -120l120 -121v-89z" />
    <glyph glyph-name="equal" unicode="=" 
d="M470 320v67h-418v-67h418zM470 151v66h-418v-66h418z" />
    <glyph glyph-name="greater" unicode="&#x3e;" horiz-adv-x="328" 
d="M78 58v89l121 121l-121 120v90l210 -210z" />
    <glyph glyph-name="question" unicode="?" horiz-adv-x="497" 
d="M451 536c0 26 -4.66895 50.1621 -14.002 72.4951s-22.666 41.833 -39.999 58.5s-37.333 29.334 -60 38.001s-47 13 -73 13c-26.667 0 -51.5 -4.66699 -74.5 -14s-43 -22.333 -60 -39s-30.167 -36.167 -39.5 -58.5s-14 -46.166 -14 -71.499h72
c0 32.667 10.667 60.667 32 84s49.333 35 84 35c33.333 0 60.833 -11.167 82.5 -33.5s32.5 -50.5 32.5 -84.5c0 -15.333 -2.66699 -29.166 -8 -41.499s-13.666 -26.833 -24.999 -43.5l-81 -117c-11.333 -16 -19.333 -31 -24 -45s-7 -30.333 -7 -49v-40h72v39
c0 8.66699 1.66699 18.334 5 29.001s7.66602 20.334 12.999 29.001l82 118c14.667 21.333 25.834 41.5 33.501 60.5s11.5 39.167 11.5 60.5zM312.998 -0.00488281v84h-86v-84h86z" />
    <glyph glyph-name="at" unicode="@" horiz-adv-x="713" 
d="M641 -1l-0.00195312 496.998c0 69.333 -19 123 -57 161c-37.333 37.333 -88.666 56 -153.999 56h-148c-66 0 -117.333 -18.667 -154 -56c-37.333 -38 -56 -91.667 -56 -161v-336c0 -44 5.33301 -77.5 16 -100.5s31.334 -45.833 62.001 -68.5l49 49
c-22.667 17.333 -37.834 33.833 -45.501 49.5s-11.5 39.5 -11.5 71.5v337c0 27.333 3 49.5 9 66.5s16.333 32.833 31 47.5c14 14 29.667 24.167 47 30.5s38 9.5 62 9.5h130c47.333 0 84.333 -13.333 111 -40c14.667 -14.667 24.834 -30.667 30.501 -48s8.5 -39.333 8.5 -66
v-78c-34 42 -78.667 63 -134 63c-28.667 0 -55.167 -5.5 -79.5 -16.5s-43.833 -26.167 -58.5 -45.5c-15.333 -20 -26 -44.167 -32 -72.5s-9 -65.166 -9 -110.499c0 -47.333 3.16699 -84.666 9.5 -111.999s17.833 -51.333 34.5 -72c15.333 -19.333 34.833 -34.333 58.5 -45
s49.5 -16 77.5 -16c30 0 55.667 5 77 15s40.333 25.667 57 47v-55zM570.998 237.998c0 -26 -1.5 -49.667 -4.5 -71s-8.83301 -40.333 -17.5 -57s-21 -30 -37 -40s-36.667 -15 -62 -15s-46 5 -62 15s-28.333 23.5 -37 40.5s-14.5 36 -17.5 57s-4.5 44.5 -4.5 70.5
s1.5 49.667 4.5 71s8.83301 40.333 17.5 57s21 30 37 40s36.667 15 62 15s46 -4.83301 62 -14.5s28.333 -23.167 37 -40.5s14.5 -36.5 17.5 -57.5s4.5 -44.5 4.5 -70.5z" />
    <glyph glyph-name="A" unicode="A" horiz-adv-x="611" 
d="M599 0l-261 712h-64l-262 -712h81l57 161h311l57 -161h81zM439 227h-266l134 376z" />
    <glyph glyph-name="B" unicode="B" horiz-adv-x="668" 
d="M592 197c0 41.333 -10.5 76.667 -31.5 106s-49.167 50.333 -84.5 63c30.667 11.333 55.834 31 75.501 59s29.5 60.333 29.5 97c0 58.667 -19.333 105 -58 139s-89.334 51 -152.001 51h-268v-712h277c64.667 0 116.167 17 154.5 51s57.5 82.667 57.5 146zM505 521.001
c0 -40.667 -12.833 -71.499 -38.5 -92.499s-59.5 -31.5 -101.5 -31.5h-186v247h186c42 0 75.833 -10.333 101.5 -31s38.5 -51.334 38.5 -92.001zM516 199.002c0 -40 -12.833 -71.833 -38.5 -95.5s-60.5 -35.5 -104.5 -35.5h-194v261h194c44 0 78.833 -11.667 104.5 -35
s38.5 -55 38.5 -95z" />
    <glyph glyph-name="C" unicode="C" horiz-adv-x="637" 
d="M572 206l-76.001 0.00488281c-9.33301 -44 -29.166 -79 -59.499 -105s-67.5 -39 -111.5 -39c-23.333 0 -45.833 4.33301 -67.5 13s-40.167 21 -55.5 37c-11.333 12 -20.333 24.333 -27 37s-11.667 27.834 -15 45.501s-5.5 38.667 -6.5 63s-1.5 57.166 -1.5 98.499
s0.5 74.333 1.5 99s3.16699 45.667 6.5 63s8.33301 32.5 15 45.5s15.667 25.167 27 36.5c15.333 16 33.833 28.333 55.5 37s44.167 13 67.5 13c44 0 80.833 -12.833 110.5 -38.5s49.167 -60.834 58.5 -105.501h78c-12 66.667 -40 118.667 -84 156s-98.333 56 -163 56
c-34.667 0 -67.667 -6.33301 -99 -19s-59 -31 -83 -55c-16.667 -16.667 -29.5 -33.834 -38.5 -51.501s-15.5 -37.334 -19.5 -59.001s-6.5 -45 -7.5 -70s-1.5 -60.833 -1.5 -107.5s0.5 -82.334 1.5 -107.001s3.5 -48 7.5 -70s10.5 -41.833 19.5 -59.5
s21.833 -34.834 38.5 -51.501c24 -24 51.667 -42.333 83 -55s64.333 -19 99 -19c64 0 118.333 18.833 163 56.5s72.667 89.5 84 155.5z" />
    <glyph glyph-name="D" unicode="D" horiz-adv-x="673" 
d="M597 364c0 73.333 -4 131.167 -12 173.5s-27.333 78.5 -58 108.5c-44 44 -104 66 -180 66h-244v-712h244c76 0 136 22 180 66c30 30 49.167 68 57.5 114s12.5 107.333 12.5 184zM521 364.001c0 -64.667 -2.83301 -116.169 -8.5 -154.502s-18.5 -68.166 -38.5 -89.499
c-18 -18 -38.667 -31.167 -62 -39.5s-49.333 -12.5 -78 -12.5h-155v576h155c28.667 0 54.667 -4 78 -12s44 -21.333 62 -40c20.667 -21.333 33.667 -49.166 39 -83.499s8 -82.5 8 -144.5z" />
    <glyph glyph-name="E" unicode="E" horiz-adv-x="600" 
d="M545 0v68h-366v257h312v68h-312v251h366v68h-442v-712h442z" />
    <glyph glyph-name="F" unicode="F" horiz-adv-x="580" 
d="M545 644v68h-442v-712h76v314h312v68h-312v262h366z" />
    <glyph glyph-name="G" unicode="G" horiz-adv-x="650" 
d="M576 260v113.003h-251v-67h175v-54c0 -28 -3.16699 -52.167 -9.5 -72.5s-16.5 -39.166 -30.5 -56.499c-16 -19.333 -35.833 -34.333 -59.5 -45s-48.834 -16 -75.501 -16c-23.333 0 -45.833 4.33301 -67.5 13s-40.167 21 -55.5 37c-11.333 12 -20.333 24.333 -27 37
s-11.667 27.834 -15 45.501s-5.5 38.667 -6.5 63s-1.5 57.166 -1.5 98.499s0.5 74.333 1.5 99s3.16699 45.5 6.5 62.5s8.33301 32 15 45s15.667 25.167 27 36.5c16 16 34.667 28.5 56 37.5s43.666 13.5 66.999 13.5c44.667 0 82.167 -12.833 112.5 -38.5
s50.5 -61.167 60.5 -106.5h76c-10.667 64 -38.167 115.5 -82.5 154.5s-99.833 58.5 -166.5 58.5c-72 0 -132.667 -24.667 -182 -74c-16.667 -16.667 -29.5 -33.834 -38.5 -51.501s-15.5 -37.334 -19.5 -59.001s-6.5 -45 -7.5 -70s-1.5 -60.833 -1.5 -107.5
s0.5 -82.334 1.5 -107.001s3.5 -48 7.5 -70s10.5 -41.833 19.5 -59.5s21.833 -34.834 38.5 -51.501c24 -24 51.667 -42.333 83 -55s64.333 -19 99 -19c36.667 0 71.334 7 104.001 21s61.334 34.333 86.001 61c22 23.333 37.667 49.5 47 78.5s14 64.167 14 105.5z" />
    <glyph glyph-name="H" unicode="H" horiz-adv-x="696" 
d="M593 0v712h-76v-319h-338v319h-76v-712h76v325h338v-325h76z" />
    <glyph glyph-name="I" unicode="I" horiz-adv-x="282" 
d="M179 0v712h-76v-712h76z" />
    <glyph glyph-name="J" unicode="J" horiz-adv-x="501" 
d="M408 216l-0.000976562 496.001h-76v-486c0 -52.667 -12.667 -93.167 -38 -121.5s-61.333 -42.5 -108 -42.5c-26.667 0 -48.167 4 -64.5 12s-32.166 19.667 -47.499 35l-51 -51c22 -22 46.167 -38.167 72.5 -48.5s56.5 -15.5 90.5 -15.5c66 0 119.5 20.167 160.5 60.5
s61.5 94.166 61.5 161.499z" />
    <glyph glyph-name="K" unicode="K" horiz-adv-x="650" 
d="M636 0l-256 437l224 275h-93l-332 -409v409h-76v-712h76v199l24 29l126 151l217 -379h90z" />
    <glyph glyph-name="L" unicode="L" horiz-adv-x="573" 
d="M543 0v68h-364v644h-76v-712h440z" />
    <glyph glyph-name="M" unicode="M" horiz-adv-x="816" 
d="M713 0v712h-76l-226 -505l-232 505h-76v-712h76v541l198 -429h65l195 429v-541h76z" />
    <glyph glyph-name="N" unicode="N" horiz-adv-x="732" 
d="M629 0v712h-76v-569l-152 229l-226 340h-72v-712h76v571l148 -224l230 -347h72z" />
    <glyph glyph-name="O" unicode="O" horiz-adv-x="650" 
d="M574 356c0 46.667 -0.5 82.334 -1.5 107.001s-3.5 48 -7.5 70s-10.5 41.833 -19.5 59.5s-21.833 34.834 -38.5 51.501c-49.333 49.333 -110 74 -182 74s-132.667 -24.667 -182 -74c-16.667 -16.667 -29.5 -33.834 -38.5 -51.501s-15.5 -37.334 -19.5 -59.001
s-6.5 -45 -7.5 -70s-1.5 -60.833 -1.5 -107.5s0.5 -82.334 1.5 -107.001s3.5 -48 7.5 -70s10.5 -41.833 19.5 -59.5s21.833 -34.834 38.5 -51.501c49.333 -49.333 110 -74 182 -74s132.667 24.667 182 74c16.667 16.667 29.5 34 38.5 52s15.5 37.833 19.5 59.5
s6.5 44.834 7.5 69.501s1.5 60.334 1.5 107.001zM498 356c0 -40.667 -0.5 -73.5029 -1.5 -98.5029s-3.16699 -46 -6.5 -63s-8.33301 -32 -15 -45s-15.667 -25.167 -27 -36.5c-15.333 -16 -33.833 -28.5 -55.5 -37.5s-44.167 -13.5 -67.5 -13.5s-45.666 4.5 -66.999 13.5
s-40 21.5 -56 37.5c-11.333 12 -20.333 24.333 -27 37s-11.667 27.667 -15 45s-5.5 38.333 -6.5 63s-1.5 57.334 -1.5 98.001c0 41.333 0.5 74.333 1.5 99s3.16699 45.5 6.5 62.5s8.33301 32 15 45s15.667 25.167 27 36.5c16 16 34.667 28.5 56 37.5
s43.666 13.5 66.999 13.5s45.833 -4.5 67.5 -13.5s40.167 -21.5 55.5 -37.5c11.333 -12 20.333 -24.333 27 -37s11.667 -27.667 15 -45s5.5 -38.166 6.5 -62.499s1.5 -57.166 1.5 -98.499z" />
    <glyph glyph-name="P" unicode="P" horiz-adv-x="630" 
d="M588 503c0 63.333 -20.333 114.001 -61 152.001s-93.667 57 -159 57h-265v-712h76v293h189c65.333 0 118.333 19.167 159 57.5s61 89.166 61 152.499zM512 503.001c0 -45.333 -13.667 -80.333 -41 -105s-64 -37 -110 -37h-182v283h182c46 0 82.667 -12 110 -36
s41 -59 41 -105z" />
    <glyph glyph-name="Q" unicode="Q" horiz-adv-x="649" 
d="M603 11l-78 78.002c12 15.333 21.333 31.333 28 48s11.5 35 14.5 55s4.83301 41.667 5.5 65s1 56.333 1 99c0 46.667 -0.5 82.334 -1.5 107.001s-3.5 48 -7.5 70s-10.5 41.833 -19.5 59.5s-21.833 34.834 -38.5 51.501c-49.333 49.333 -110 74 -182 74
s-132.667 -24.667 -182 -74c-16.667 -16.667 -29.5 -33.834 -38.5 -51.501s-15.5 -37.334 -19.5 -59.001s-6.5 -45 -7.5 -70s-1.5 -60.833 -1.5 -107.5s0.5 -82.334 1.5 -107.001s3.5 -48 7.5 -70s10.5 -41.833 19.5 -59.5s21.833 -34.834 38.5 -51.501
c49.333 -49.333 110 -74 182 -74c58.667 0 109.667 16.667 153 50l79 -79zM498 356.002c0 -61.333 -1.83301 -106.836 -5.5 -136.503s-11.5 -54.5 -23.5 -74.5l-87 87l-46 -46l90 -90c-30 -22.667 -63.667 -34 -101 -34c-23.333 0 -45.666 4.5 -66.999 13.5
s-40 21.5 -56 37.5c-11.333 12 -20.333 24.333 -27 37s-11.667 27.667 -15 45s-5.5 38.333 -6.5 63s-1.5 57.334 -1.5 98.001c0 41.333 0.5 74.333 1.5 99s3.16699 45.5 6.5 62.5s8.33301 32 15 45s15.667 25.167 27 36.5c16 16 34.667 28.5 56 37.5
s43.666 13.5 66.999 13.5s45.833 -4.5 67.5 -13.5s40.167 -21.5 55.5 -37.5c11.333 -12 20.333 -24.333 27 -37s11.667 -27.667 15 -45s5.5 -38.166 6.5 -62.499s1.5 -57.166 1.5 -98.499z" />
    <glyph glyph-name="R" unicode="R" horiz-adv-x="656" 
d="M601 0l-169 322.999c47.333 10 85 31.667 113 65s42 75.333 42 126c0 60.667 -19.5 108.834 -58.5 144.501s-89.833 53.5 -152.5 53.5h-273v-712h76v316h171l162 -316h89zM511 512.999c0 -42 -13 -74.167 -39 -96.5s-60.333 -33.5 -103 -33.5h-190v261h190
c42.667 0 77 -11.333 103 -34s39 -55 39 -97z" />
    <glyph glyph-name="S" unicode="S" horiz-adv-x="588" 
d="M532 196c0 60 -20.0049 106.996 -60.0049 140.996c-15.333 13.333 -32.666 23.833 -51.999 31.5s-45.333 13.834 -78 18.501l-38 6l-40 6c-18.667 3.33301 -36.667 8.33301 -54 15s-31.333 14.667 -42 24c-21.333 18.667 -32 46 -32 82c0 40 13.333 72 40 96
s63.334 36 110.001 36c36.667 0 67.834 -5 93.501 -15s49.834 -25.333 72.501 -46l49 49c-30.667 28 -62.334 48 -95.001 60s-71.667 18 -117 18c-70 0 -125.5 -18.167 -166.5 -54.5s-61.5 -85.166 -61.5 -146.499c0 -56.667 18 -101 54 -133
c30.667 -26.667 74.334 -44.667 131.001 -54l41 -6l42 -7c26.667 -4 46 -8.16699 58 -12.5s23.667 -11.5 35 -21.5c22.667 -20 34 -49.667 34 -89c0 -41.333 -15 -73.666 -45 -96.999s-71 -35 -123 -35c-40.667 0 -76 5.83301 -106 17.5s-59.333 31.834 -88 60.501l-52 -52
c33.333 -33.333 69 -57.333 107 -72s83.667 -22 137 -22c74.667 0 134.334 18.167 179.001 54.5s67 85.5 67 147.5z" />
    <glyph glyph-name="T" unicode="T" horiz-adv-x="548" 
d="M518 644v68h-488v-68h206v-644h76v644h206z" />
    <glyph glyph-name="U" unicode="U" horiz-adv-x="683" 
d="M590 235l0.000976562 477.003h-76v-471c0 -54 -15.833 -97.333 -47.5 -130s-73.5 -49 -125.5 -49s-93.667 16.333 -125 49s-47 76 -47 130v471h-76v-477c0 -34.667 6 -66.834 18 -96.501s29.167 -55.334 51.5 -77.001s48.833 -38.334 79.5 -50.001s63.667 -17.5 99 -17.5
s68.333 5.83301 99 17.5s57.167 28.334 79.5 50.001s39.666 47.167 51.999 76.5s18.5 61.666 18.5 96.999z" />
    <glyph glyph-name="V" unicode="V" horiz-adv-x="546" 
d="M538 712h-80l-185 -576l-185 576h-80l234 -712h62z" />
    <glyph glyph-name="W" unicode="W" horiz-adv-x="854" 
d="M838 712h-81l-139 -574l-157 574h-68l-157 -574l-139 574h-81l182 -712h71l158 570l158 -570h71z" />
    <glyph glyph-name="X" unicode="X" horiz-adv-x="551" 
d="M536 0l-220 365l205 347h-88l-158 -281l-158 281h-88l204 -347l-218 -365h86l174 299l173 -299h88z" />
    <glyph glyph-name="Y" unicode="Y" horiz-adv-x="514" 
d="M506 712h-82l-166 -341l-168 341h-82l212 -418v-294h76v294z" />
    <glyph glyph-name="Z" unicode="Z" horiz-adv-x="556" 
d="M499 0v68h-359l359 580v64h-428v-68h342l-356 -572v-72h442z" />
    <glyph glyph-name="bracketleft" unicode="[" horiz-adv-x="313" 
d="M269 -74v64h-105v732h105v64h-177v-860h177z" />
    <glyph glyph-name="backslash" unicode="\" horiz-adv-x="355" 
d="M355 -74l-284 857h-71l284 -857h71z" />
    <glyph glyph-name="bracketright" unicode="]" horiz-adv-x="313" 
d="M221 -74v860h-177v-62h108v-736h-108v-62h177z" />
    <glyph glyph-name="asciicircum" unicode="^" horiz-adv-x="537" 
d="M465 413l-163 305h-66l-164 -305h74l123 228l122 -228h74z" />
    <glyph glyph-name="underscore" unicode="_" horiz-adv-x="537" 
d="M537 -165v51h-537v-51h537z" />
    <glyph glyph-name="grave" unicode="`" horiz-adv-x="500" 
d="M299 594l-88 153h-86l108 -153h66z" />
    <glyph glyph-name="a" unicode="a" horiz-adv-x="526" 
d="M441 0v334.001c0 109.333 -65.667 164 -197 164c-41.333 0 -75.333 -5.33301 -102 -16s-50.667 -29.667 -72 -57l49 -45c14.667 20.667 31.167 35.167 49.5 43.5s43.166 12.5 74.499 12.5c44.667 0 76.834 -8.83301 96.501 -26.5s29.5 -44.834 29.5 -81.501v-47h-148
c-54 0 -95.833 -12.667 -125.5 -38s-44.5 -60 -44.5 -104c0 -20 3.16699 -38.667 9.5 -56s15.5 -32 27.5 -44c15.333 -16 33.833 -27.5 55.5 -34.5s49.5 -10.5 83.5 -10.5c33.333 0 60.333 3.83301 81 11.5s41 21.5 61 41.5v-47h72zM369 174.001
c0 -40.667 -8.33301 -69.001 -25 -85.001c-14 -13.333 -29.5 -22.166 -46.5 -26.499s-38.167 -6.5 -63.5 -6.5c-75.333 0 -113 28 -113 84c0 58 36.667 87 110 87h138v-53z" />
    <glyph glyph-name="b" unicode="b" horiz-adv-x="545" 
d="M481 246c0 45.333 -4.33301 85.8311 -13 121.498s-24.334 64.834 -47.001 87.501c-13.333 13.333 -30.5 23.833 -51.5 31.5s-43.833 11.5 -68.5 11.5c-29.333 0 -55.166 -4.5 -77.499 -13.5s-42.833 -25.5 -61.5 -49.5v277h-72v-712h72v59
c18.667 -24.667 39.167 -41.667 61.5 -51s48.166 -14 77.499 -14c24.667 0 47.5 3.83301 68.5 11.5s38.167 18.167 51.5 31.5c22.667 22.667 38.334 51.834 47.001 87.501s13 76.167 13 121.5zM409 245.998c0 -27.333 -1.5 -51.833 -4.5 -73.5s-8.83301 -41.167 -17.5 -58.5
s-21.334 -31 -38.001 -41s-37.667 -15 -63 -15s-46.333 5 -63 15s-29.334 23.667 -38.001 41s-14.667 37 -18 59s-5 46.333 -5 73s1.66699 51 5 73s9.33301 41.667 18 59s21.334 31 38.001 41s37.667 15 63 15s46.333 -5 63 -15s29.334 -23.667 38.001 -41
s14.5 -36.833 17.5 -58.5s4.5 -46.167 4.5 -73.5z" />
    <glyph glyph-name="c" unicode="c" horiz-adv-x="490" 
d="M443 67l-49 46.9961c-18.667 -20.667 -36.334 -35.167 -53.001 -43.5s-36.667 -12.5 -60 -12.5c-50 0 -88 18.667 -114 56c-11.333 16 -19.5 34.333 -24.5 55s-7.5 46.334 -7.5 77.001s2.5 56.334 7.5 77.001s13.167 39 24.5 55c26 37.333 64 56 114 56
c23.333 0 43.333 -4 60 -12s34.334 -22.333 53.001 -43l49 46c-25.333 27.333 -50 46.333 -74 57s-53.333 16 -88 16c-64.667 0 -117.167 -21.667 -157.5 -65s-60.5 -105.666 -60.5 -186.999s20.167 -143.666 60.5 -186.999s92.833 -65 157.5 -65c34.667 0 64 5.33301 88 16
s48.667 29.667 74 57z" />
    <glyph glyph-name="d" unicode="d" horiz-adv-x="545" 
d="M455 0l-0.000976562 712.002h-72v-277c-18.667 24 -39 40.5 -61 49.5s-48 13.5 -78 13.5c-24.667 0 -47.5 -3.83301 -68.5 -11.5s-38.167 -18.167 -51.5 -31.5c-22.667 -22.667 -38.334 -51.834 -47.001 -87.501s-13 -76.167 -13 -121.5s4.33301 -85.833 13 -121.5
s24.334 -64.834 47.001 -87.501c13.333 -13.333 30.5 -23.833 51.5 -31.5s43.833 -11.5 68.5 -11.5c29.333 0 55.333 4.83301 78 14.5s43.334 26.5 62.001 50.5v-59h71zM382.999 246.002c0 -27.333 -1.5 -51.833 -4.5 -73.5s-8.83301 -41.167 -17.5 -58.5
s-21.334 -31 -38.001 -41s-37.667 -15 -63 -15s-46.333 5 -63 15s-29.334 23.667 -38.001 41s-14.667 37 -18 59s-5 46.333 -5 73s1.66699 51 5 73s9.33301 41.667 18 59s21.334 31 38.001 41s37.667 15 63 15s46.333 -5 63 -15s29.334 -23.667 38.001 -41
s14.5 -36.833 17.5 -58.5s4.5 -46.167 4.5 -73.5z" />
    <glyph glyph-name="e" unicode="e" horiz-adv-x="530" 
d="M467 227v33c0 73.333 -17.833 131.333 -53.5 174s-85.167 64 -148.5 64c-62.667 0 -112 -22.167 -148 -66.5s-54 -106.166 -54 -185.499c0 -84.667 19 -147.834 57 -189.501s90.667 -62.5 158 -62.5c40.667 0 74.167 6 100.5 18s52.833 31.333 79.5 58l-49 43
c-20 -20 -39.5 -34.333 -58.5 -43s-42.5 -13 -70.5 -13c-46.667 0 -82.5 14.833 -107.5 44.5s-37.5 71.5 -37.5 125.5h332zM395 281h-260c1.33301 20.667 2.83301 36.167 4.5 46.5s5.16699 22.166 10.5 35.499c9.33301 22.667 24.333 40.667 45 54s44 20 70 20
s49.333 -6.66699 70 -20s35.667 -31.333 45 -54c5.33301 -13.333 8.83301 -25.166 10.5 -35.499s3.16699 -25.833 4.5 -46.5z" />
    <glyph glyph-name="f" unicode="f" horiz-adv-x="314" 
d="M283 434l-0.000976562 55.002h-105v91c0 23.333 5.33301 41.166 16 53.499s27.334 18.5 50.001 18.5h39v62h-52c-40 0 -70.833 -12.333 -92.5 -37s-32.5 -56.334 -32.5 -95.001v-93h-63v-55h63v-434h72v434h105z" />
    <glyph glyph-name="g" unicode="g" horiz-adv-x="543" 
d="M453 -15l-0.00195312 506.998h-71v-58c-18.667 24.667 -39 41.5 -61 50.5s-47.667 13.5 -77 13.5c-24.667 0 -47.5 -3.83301 -68.5 -11.5s-38.167 -18.167 -51.5 -31.5c-22.667 -22.667 -38.334 -51.167 -47.001 -85.5s-13 -74.166 -13 -119.499
s4.33301 -85.166 13 -119.499s24.334 -62.833 47.001 -85.5c13.333 -13.333 30.333 -24 51 -32s43.334 -12 68.001 -12c28.667 0 54.167 4.66699 76.5 14s42.833 26 61.5 50v-77c0 -44.667 -11.167 -81 -33.5 -109s-56.166 -42 -101.499 -42c-26.667 0 -48 3.66699 -64 11
s-34 20 -54 38l-47 -46c26.667 -24 52.167 -41 76.5 -51s54.5 -15 90.5 -15c63.333 0 113.333 19.667 150 59s55 90 55 152zM380.998 249.998c0 -26.667 -1.5 -50.499 -4.5 -71.499s-8.66699 -40 -17 -57s-20.666 -30.5 -36.999 -40.5s-37.5 -15 -63.5 -15
c-25.333 0 -46.333 5 -63 15s-29.334 23.5 -38.001 40.5s-14.5 36.167 -17.5 57.5s-4.5 45 -4.5 71s1.5 49.667 4.5 71s8.83301 40.5 17.5 57.5s21.334 30.5 38.001 40.5s37.667 15 63 15c26 0 47.167 -5 63.5 -15s28.666 -23.667 36.999 -41s14 -36.333 17 -57
s4.5 -44.334 4.5 -71.001z" />
    <glyph glyph-name="h" unicode="h" horiz-adv-x="562" 
d="M477 0l-0.000976562 316c0 56 -15.667 100.333 -47 133s-74.666 49 -129.999 49c-56.667 0 -102.667 -20 -138 -60v274h-72v-712h72v304c0 42 11 74.167 33 96.5s52 33.5 90 33.5s67.5 -11 88.5 -33s31.5 -54.333 31.5 -97v-304h72z" />
    <glyph glyph-name="i" unicode="i" horiz-adv-x="253" 
d="M167 632v81h-81v-81h81zM162 0v492h-72v-492h72z" />
    <glyph glyph-name="j" unicode="j" horiz-adv-x="253" 
d="M167 632v81h-81v-81h81zM162 -89l0.000976562 578.002h-72v-575c0 -24.667 -4.83301 -42.834 -14.5 -54.501s-26.834 -17.5 -51.501 -17.5h-39v-63h52c41.333 0 72.5 12.167 93.5 36.5s31.5 56.166 31.5 95.499z" />
    <glyph glyph-name="k" unicode="k" horiz-adv-x="536" 
d="M503 0l-196 304l167 188h-90l-222 -256v476h-72v-712h72v142l96 110l156 -252h89z" />
    <glyph glyph-name="l" unicode="l" horiz-adv-x="297" 
d="M265 0v61.999h-39c-24 0 -41 5.83301 -51 17.5s-15 29.834 -15 54.501v578h-72v-581c0 -39.333 10.5 -71 31.5 -95s52.167 -36 93.5 -36h52z" />
    <glyph glyph-name="m" unicode="m" horiz-adv-x="879" 
d="M794 0l-0.00195312 315c0 57.333 -17.667 103 -53 137c-32 30.667 -74.333 46 -127 46c-69.333 0 -123.333 -27.333 -162 -82c-30.667 54.667 -81 82 -151 82c-57.333 0 -103.666 -20 -138.999 -60v54h-72v-492h72v303c0 42 11 74.333 33 97s52 34 90 34
s67.667 -11.167 89 -33.5s32 -54.833 32 -97.5v-303h72v311c0 38 11.333 68 34 90s52.334 33 89.001 33c38 0 67.667 -11.167 89 -33.5s32 -54.833 32 -97.5v-303h72z" />
    <glyph glyph-name="n" unicode="n" horiz-adv-x="562" 
d="M477 0v314.999c0 58.667 -17 104.334 -51 137.001c-30.667 30.667 -72.667 46 -126 46c-56.667 0 -102.667 -20 -138 -60v54h-72v-492h72v303c0 42 10.833 74.333 32.5 97s51.5 34 89.5 34s67.667 -11.167 89 -33.5s32 -54.833 32 -97.5v-303h72z" />
    <glyph glyph-name="o" unicode="o" horiz-adv-x="530" 
d="M466 246c0 43.333 -4.16699 81 -12.5 113s-24.166 59.667 -47.499 83c-37.333 37.333 -84.333 56 -141 56s-103.667 -18.667 -141 -56c-23.333 -23.333 -39.166 -51 -47.499 -83s-12.5 -69.667 -12.5 -113s4.16699 -81 12.5 -113s24.166 -59.667 47.499 -83
c37.333 -37.333 84.333 -56 141 -56s103.667 18.667 141 56c23.333 23.333 39.166 51 47.499 83s12.5 69.667 12.5 113zM394 246c0 -34.667 -2.5 -64.667 -7.5 -90s-15.5 -46 -31.5 -62c-24 -24 -54 -36 -90 -36c-35.333 0 -65 12 -89 36c-16 16 -26.667 36.667 -32 62
s-8 55.333 -8 90s2.66699 64.667 8 90s16 46 32 62c24 24 53.667 36 89 36c36 0 66 -12 90 -36c16 -16 26.5 -36.667 31.5 -62s7.5 -55.333 7.5 -90z" />
    <glyph glyph-name="p" unicode="p" horiz-adv-x="545" 
d="M481 246c0 45.333 -4.33301 85.8311 -13 121.498s-24.334 64.834 -47.001 87.501c-13.333 13.333 -30.5 23.833 -51.5 31.5s-43.833 11.5 -68.5 11.5c-29.333 0 -55.166 -4.5 -77.499 -13.5s-42.833 -25.833 -61.5 -50.5v58h-72v-712h72v278
c18.667 -24 39.167 -40.667 61.5 -50s48.166 -14 77.499 -14c24.667 0 47.5 3.83301 68.5 11.5s38.167 18.167 51.5 31.5c22.667 22.667 38.334 51.834 47.001 87.501s13 76.167 13 121.5zM409 245.998c0 -27.333 -1.5 -51.833 -4.5 -73.5s-8.83301 -41.167 -17.5 -58.5
s-21.334 -31 -38.001 -41s-37.667 -15 -63 -15s-46.333 5 -63 15s-29.334 23.667 -38.001 41s-14.667 37 -18 59s-5 46.333 -5 73s1.66699 51 5 73s9.33301 41.667 18 59s21.334 31 38.001 41s37.667 15 63 15s46.333 -5 63 -15s29.334 -23.667 38.001 -41
s14.5 -36.833 17.5 -58.5s4.5 -46.167 4.5 -73.5z" />
    <glyph glyph-name="q" unicode="q" horiz-adv-x="545" 
d="M455 -220l0.000976562 712.002h-71v-58c-18.667 24 -39.167 40.667 -61.5 50s-48.5 14 -78.5 14c-24.667 0 -47.5 -3.83301 -68.5 -11.5s-38.167 -18.167 -51.5 -31.5c-22.667 -22.667 -38.334 -51.834 -47.001 -87.501s-13 -76.167 -13 -121.5
s4.33301 -85.833 13 -121.5s24.334 -64.834 47.001 -87.501c13.333 -13.333 30.5 -23.833 51.5 -31.5s43.833 -11.5 68.5 -11.5c29.333 0 55.166 4.66699 77.499 14s42.833 26 61.5 50v-278h72zM383.001 246.002c0 -27.333 -1.5 -51.833 -4.5 -73.5
s-8.83301 -41.167 -17.5 -58.5s-21.334 -31 -38.001 -41s-37.667 -15 -63 -15s-46.333 5 -63 15s-29.334 23.667 -38.001 41s-14.667 37 -18 59s-5 46.333 -5 73s1.66699 51 5 73s9.33301 41.667 18 59s21.334 31 38.001 41s37.667 15 63 15s46.333 -5 63 -15
s29.334 -23.667 38.001 -41s14.5 -36.833 17.5 -58.5s4.5 -46.167 4.5 -73.5z" />
    <glyph glyph-name="r" unicode="r" horiz-adv-x="421" 
d="M418 452c-16.667 16.667 -34.3311 28.5 -52.998 35.5s-40.334 10.5 -65.001 10.5c-28.667 0 -55.5 -5.83301 -80.5 -17.5s-44.167 -27.834 -57.5 -48.501v60h-72v-492h72v302c0 38 10.833 69.5 32.5 94.5s50.167 37.5 85.5 37.5c18.667 0 34.167 -2.66699 46.5 -8
s25.166 -14.666 38.499 -27.999z" />
    <glyph glyph-name="s" unicode="s" horiz-adv-x="496" 
d="M445 144c0 43.333 -12.502 75.334 -37.502 96.001s-60.833 33 -107.5 37l-39 4l-40 3c-30 2.66699 -51.833 10 -65.5 22s-20.5 28.667 -20.5 50c0 25.333 9.5 45.166 28.5 59.499s46.167 21.5 81.5 21.5c53.333 0 97 -13 131 -39l47 47
c-21.333 17.333 -47.166 30.5 -77.499 39.5s-63.5 13.5 -99.5 13.5c-53.333 0 -96.833 -13 -130.5 -39s-50.5 -61 -50.5 -105c0 -80 49 -124 147 -132l39 -3l42 -4c54.667 -4.66699 82 -28.667 82 -72c0 -28.667 -11.5 -50.334 -34.5 -65.001s-55.167 -22 -96.5 -22
c-32 0 -60.833 4.5 -86.5 13.5s-47.834 23.5 -66.501 43.5l-48 -48c26.667 -25.333 56.334 -43.5 89.001 -54.5s70.334 -16.5 113.001 -16.5c60.667 0 109.167 13.333 145.5 40s54.5 63.334 54.5 110.001z" />
    <glyph glyph-name="t" unicode="t" horiz-adv-x="332" 
d="M279 0l-0.000976562 62.002h-38c-22.667 0 -39.5 6.16699 -50.5 18.5s-16.5 30.166 -16.5 53.499v300h105v55h-105v154h-72v-154h-62v-55h62v-302c0 -38.667 10.833 -70.334 32.5 -95.001s52.834 -37 93.501 -37h51z" />
    <glyph glyph-name="u" unicode="u" horiz-adv-x="562" 
d="M472 0l0.000976562 492h-72v-303c0 -42 -11 -74.333 -33 -97s-52 -34 -90 -34s-67.5 11.167 -88.5 33.5s-31.5 54.833 -31.5 97.5v303h-72v-314c0 -59.333 16.667 -105.333 50 -138c30.667 -30.667 73 -46 127 -46c57.333 0 103.666 20.333 138.999 61v-55h71z" />
    <glyph glyph-name="v" unicode="v" horiz-adv-x="447" 
d="M436 492h-78l-135 -395l-134 395h-78l180 -492h64z" />
    <glyph glyph-name="w" unicode="w" horiz-adv-x="724" 
d="M713 492h-78l-112 -395l-130 395h-62l-129 -395l-113 395h-78l156 -492h67l128 382l129 -382h67z" />
    <glyph glyph-name="x" unicode="x" horiz-adv-x="478" 
d="M445 0l-167 251l160 241h-87l-111 -182l-113 182h-87l160 -241l-167 -251h87l120 191l118 -191h87z" />
    <glyph glyph-name="y" unicode="y" horiz-adv-x="447" 
d="M436 492h-78.001l-134 -395l-135 395h-78l177 -482l-35 -96c-8 -23.333 -17.5 -39.333 -28.5 -48s-28.5 -13 -52.5 -13h-22v-64h31c18.667 0 36.334 2.66699 53.001 8s31 14 43 26c14 12.667 25.667 32 35 58z" />
    <glyph glyph-name="z" unicode="z" horiz-adv-x="459" 
d="M407 0v64h-275l275 367v61h-342v-64h259l-274 -366v-62h357z" />
    <glyph glyph-name="braceleft" unicode="{" horiz-adv-x="354" 
d="M305 -74v64.0029h-23c-17.333 0 -30.333 1 -39 3s-15.334 5.33301 -20.001 10c-5.33301 5.33301 -9 13 -11 23s-3 24 -3 42v188c0 26.667 -5.33301 47.5 -16 62.5s-26.334 27.5 -47.001 37.5c20.667 10 36.334 22.5 47.001 37.5s16 35.833 16 62.5v188
c0 18.667 1 32.834 3 42.501s5.66699 17.167 11 22.5c4.66699 4.66699 11.334 8 20.001 10s21.667 3 39 3h23v64h-37c-25.333 0 -45.833 -2.33301 -61.5 -7s-28.834 -12.334 -39.501 -23.001s-18.334 -23.334 -23.001 -38.001s-7 -35 -7 -61v-191c0 -28 -6 -48 -18 -60
s-27 -18 -45 -18h-26v-64h26c18 0 33 -6 45 -18s18 -32 18 -60v-191c0 -26 2.33301 -46.333 7 -61s12.334 -27.334 23.001 -38.001s23.834 -18.334 39.501 -23.001s36.167 -7 61.5 -7h37z" />
    <glyph glyph-name="bar" unicode="|" horiz-adv-x="326" 
d="M199 -74v860h-72v-860h72z" />
    <glyph glyph-name="braceright" unicode="}" horiz-adv-x="354" 
d="M305 324v63.9961h-25c-18 0 -33 6 -45 18s-18 32 -18 60v191c0 26 -2.16699 46.333 -6.5 61s-12.166 27.334 -23.499 38.001c-10.667 10.667 -23.834 18.334 -39.501 23.001s-36.167 7 -61.5 7h-38v-64h24c17.333 0 30.166 -0.833008 38.499 -2.5
s14.833 -5.16699 19.5 -10.5c5.33301 -5.33301 9.16602 -13 11.499 -23s3.5 -24 3.5 -42v-188c0 -26.667 5.33301 -47.5 16 -62.5s26.334 -27.5 47.001 -37.5c-20.667 -10 -36.334 -22.5 -47.001 -37.5s-16 -35.833 -16 -62.5v-188c0 -18 -1.16699 -32 -3.5 -42
s-6.16602 -17.667 -11.499 -23c-4.66699 -5.33301 -11.167 -8.83301 -19.5 -10.5s-21.166 -2.5 -38.499 -2.5h-24v-64h38c25.333 0 45.833 2.33301 61.5 7s28.834 12.334 39.501 23.001c11.333 10.667 19.166 23.334 23.499 38.001s6.5 35 6.5 61v191c0 28 6 48 18 60
s27 18 45 18h25z" />
    <glyph glyph-name="asciitilde" unicode="~" horiz-adv-x="539" 
d="M490 278l-45 45c-18.667 -18.667 -33.667 -30.834 -45 -36.501s-24.333 -8.5 -39 -8.5c-12 0 -23.333 1.83301 -34 5.5s-24.667 9.5 -42 17.5l-2 1c-24 10.667 -43.5 18.5 -58.5 23.5s-30.5 7.5 -46.5 7.5c-23.333 0 -43.833 -4.5 -61.5 -13.5
s-40.167 -27.167 -67.5 -54.5l44 -45c18.667 18.667 33.667 30.834 45 36.501s24.333 8.5 39 8.5c12 0 23.333 -1.83301 34 -5.5s24.667 -9.5 42 -17.5l2 -1c24 -10.667 43.667 -18.5 59 -23.5s31 -7.5 47 -7.5c23.333 0 43.833 4.5 61.5 13.5s40.167 27.167 67.5 54.5z" />
    <glyph glyph-name="Euro" horiz-adv-x="678" 
d="M608 206c-6 -33.333 -16.333 -63.1689 -31 -89.502s-32.667 -48.5 -54 -66.5s-45.666 -31.833 -72.999 -41.5s-57 -14.5 -89 -14.5c-71.333 0 -131.666 24.667 -180.999 74c-12.667 12.667 -23 25.667 -31 39s-14.5 27.666 -19.5 42.999s-8.66699 32 -11 50
s-3.83301 38 -4.5 60h-67v50h66v98h-66v49h67c0.666992 20.667 2.33398 39.834 5.00098 57.501s6.5 34 11.5 49s11.5 29.167 19.5 42.5s18 26 30 38c49.333 49.333 109.666 74 180.999 74c32 0 61.667 -4.83301 89 -14.5s51.833 -23.5 73.5 -41.5s39.667 -40.167 54 -66.5
s24.5 -56.166 30.5 -89.499h-77c-9.33301 44 -28.833 79 -58.5 105s-66.834 39 -111.501 39c-48.667 0 -89.667 -16.667 -123 -50c-8 -8.66699 -14.833 -17.5 -20.5 -26.5s-10.334 -19.167 -14.001 -30.5s-6.5 -24 -8.5 -38s-3.33301 -30 -4 -48h219v-49h-221v-98h221v-50
h-219c0.666992 -19.333 2 -36.333 4 -51s4.66699 -27.667 8 -39s7.83301 -21.666 13.5 -30.999s12.834 -18.333 21.501 -27c33.333 -33.333 74.333 -50 123 -50c44.667 0 82.167 13 112.5 39s50.166 61 59.499 105h75v0z" />
    <glyph glyph-name="Euro" unicode="&#x20ac;" horiz-adv-x="678" 
d="M608 206c-6 -33.333 -16.333 -63.1689 -31 -89.502s-32.667 -48.5 -54 -66.5s-45.666 -31.833 -72.999 -41.5s-57 -14.5 -89 -14.5c-71.333 0 -131.666 24.667 -180.999 74c-12.667 12.667 -23 25.667 -31 39s-14.5 27.666 -19.5 42.999s-8.66699 32 -11 50
s-3.83301 38 -4.5 60h-67v50h66v98h-66v49h67c0.666992 20.667 2.33398 39.834 5.00098 57.501s6.5 34 11.5 49s11.5 29.167 19.5 42.5s18 26 30 38c49.333 49.333 109.666 74 180.999 74c32 0 61.667 -4.83301 89 -14.5s51.833 -23.5 73.5 -41.5s39.667 -40.167 54 -66.5
s24.5 -56.166 30.5 -89.499h-77c-9.33301 44 -28.833 79 -58.5 105s-66.834 39 -111.501 39c-48.667 0 -89.667 -16.667 -123 -50c-8 -8.66699 -14.833 -17.5 -20.5 -26.5s-10.334 -19.167 -14.001 -30.5s-6.5 -24 -8.5 -38s-3.33301 -30 -4 -48h219v-49h-221v-98h221v-50
h-219c0.666992 -19.333 2 -36.333 4 -51s4.66699 -27.667 8 -39s7.83301 -21.666 13.5 -30.999s12.834 -18.333 21.501 -27c33.333 -33.333 74.333 -50 123 -50c44.667 0 82.167 13 112.5 39s50.166 61 59.499 105h75v0z" />
    <glyph glyph-name="quotesinglbase" horiz-adv-x="263" 
d="M175 0v84h-87v-163z" />
    <glyph glyph-name="quotesinglbase" unicode="&#x201a;" horiz-adv-x="263" 
d="M175 0v84h-87v-163z" />
    <glyph glyph-name="florin" horiz-adv-x="403" 
d="M373 652v62.002h-52c-40.667 0 -74 -12.333 -100 -37s-42.333 -56.334 -49 -95.001l-34 -198h-108v-54h98l-97 -550h72l97 550h115v54h-105l34 196c4 23.333 12.5 41.166 25.5 53.499s30.833 18.5 53.5 18.5h50z" />
    <glyph glyph-name="florin" unicode="&#x192;" horiz-adv-x="403" 
d="M373 652v62.002h-52c-40.667 0 -74 -12.333 -100 -37s-42.333 -56.334 -49 -95.001l-34 -198h-108v-54h98l-97 -550h72l97 550h115v54h-105l34 196c4 23.333 12.5 41.166 25.5 53.499s30.833 18.5 53.5 18.5h50z" />
    <glyph glyph-name="quotedblbase" horiz-adv-x="434" 
d="M346 0v84h-88v-163zM175 0v84h-87v-163z" />
    <glyph glyph-name="quotedblbase" unicode="&#x201e;" horiz-adv-x="434" 
d="M346 0v84h-88v-163zM175 0v84h-87v-163z" />
    <glyph glyph-name="ellipsis" unicode="&#x85;" horiz-adv-x="757" 
d="M669 0v92h-92v-92h92zM424 0v92h-92v-92h92zM180 0v92h-92v-92h92z" />
    <glyph glyph-name="ellipsis" unicode="&#x2026;" horiz-adv-x="757" 
d="M669 0v92h-92v-92h92zM424 0v92h-92v-92h92zM180 0v92h-92v-92h92z" />
    <glyph glyph-name="dagger" horiz-adv-x="605" 
d="M531 445v64h-194v203h-72v-203h-191v-64h191v-445h72v445h194z" />
    <glyph glyph-name="dagger" unicode="&#x2020;" horiz-adv-x="605" 
d="M531 445v64h-194v203h-72v-203h-191v-64h191v-445h72v445h194z" />
    <glyph glyph-name="daggerdbl" horiz-adv-x="605" 
d="M531 -16v64h-194v397h194v64h-194v203h-72v-203h-191v-64h191v-397h-191v-64h191v-204h72v204h194z" />
    <glyph glyph-name="daggerdbl" unicode="&#x2021;" horiz-adv-x="605" 
d="M531 -16v64h-194v397h194v64h-194v203h-72v-203h-191v-64h191v-397h-191v-64h191v-204h72v204h194z" />
    <glyph glyph-name="circumflex" horiz-adv-x="500" 
d="M409 594l-125 153h-68l-125 -153h69l90 104l90 -104h69z" />
    <glyph glyph-name="circumflex" unicode="&#x2c6;" horiz-adv-x="500" 
d="M409 594l-125 153h-68l-125 -153h69l90 104l90 -104h69z" />
    <glyph glyph-name="perthousand" horiz-adv-x="1179" 
d="M1115 128v105c0 40.667 -12.667 73.334 -38 98.001s-57.666 37 -96.999 37s-71.666 -12.333 -96.999 -37s-38 -57.334 -38 -98.001v-105c0 -40.667 12.667 -73.334 38 -98.001s57.666 -37 96.999 -37s71.666 12.333 96.999 37s38 57.334 38 98.001zM1058 130
c0 -27.333 -6.5 -48.668 -19.5 -64.001s-32.5 -23 -58.5 -23c-26.667 0 -46.334 7.5 -59.001 22.5s-19 36.5 -19 64.5v101c0 28 6.33301 49.5 19 64.5s32.334 22.5 59.001 22.5c26 0 45.5 -7.66699 58.5 -23s19.5 -36.666 19.5 -63.999v-101zM769 127.998v105
c0 40.667 -12.667 73.334 -38 98.001s-57.666 37 -96.999 37s-71.666 -12.333 -96.999 -37s-38 -57.334 -38 -98.001v-105c0 -40.667 12.667 -73.334 38 -98.001s57.666 -37 96.999 -37s71.666 12.333 96.999 37s38 57.334 38 98.001zM712 129.998
c0 -27.333 -6.5 -48.668 -19.5 -64.001s-32.5 -23 -58.5 -23c-26.667 0 -46.334 7.5 -59.001 22.5s-19 36.5 -19 64.5v101c0 28 6.33301 49.5 19 64.5s32.334 22.5 59.001 22.5c26 0 45.5 -7.66699 58.5 -23s19.5 -36.666 19.5 -63.999v-101zM614 711.996h-60l-334 -712h60z
M335 478.996v105c0 40.667 -12.667 73.334 -38 98.001s-57.666 37 -96.999 37s-71.666 -12.333 -96.999 -37s-38 -57.334 -38 -98.001v-105c0 -40 12.667 -72.333 38 -97s57.666 -37 96.999 -37s71.666 12.333 96.999 37s38 57 38 97zM278 480.996
c0 -27.333 -6.50098 -48.501 -19.501 -63.501s-32.5 -22.5 -58.5 -22.5s-45.5 7.5 -58.5 22.5s-19.5 36.167 -19.5 63.5v101c0 28 6.33301 49.5 19 64.5s32.334 22.5 59.001 22.5c26 0 45.5 -7.66699 58.5 -23s19.5 -36.666 19.5 -63.999v-101z" />
    <glyph glyph-name="perthousand" unicode="&#x2030;" horiz-adv-x="1179" 
d="M1115 128v105c0 40.667 -12.667 73.334 -38 98.001s-57.666 37 -96.999 37s-71.666 -12.333 -96.999 -37s-38 -57.334 -38 -98.001v-105c0 -40.667 12.667 -73.334 38 -98.001s57.666 -37 96.999 -37s71.666 12.333 96.999 37s38 57.334 38 98.001zM1058 130
c0 -27.333 -6.5 -48.668 -19.5 -64.001s-32.5 -23 -58.5 -23c-26.667 0 -46.334 7.5 -59.001 22.5s-19 36.5 -19 64.5v101c0 28 6.33301 49.5 19 64.5s32.334 22.5 59.001 22.5c26 0 45.5 -7.66699 58.5 -23s19.5 -36.666 19.5 -63.999v-101zM769 127.998v105
c0 40.667 -12.667 73.334 -38 98.001s-57.666 37 -96.999 37s-71.666 -12.333 -96.999 -37s-38 -57.334 -38 -98.001v-105c0 -40.667 12.667 -73.334 38 -98.001s57.666 -37 96.999 -37s71.666 12.333 96.999 37s38 57.334 38 98.001zM712 129.998
c0 -27.333 -6.5 -48.668 -19.5 -64.001s-32.5 -23 -58.5 -23c-26.667 0 -46.334 7.5 -59.001 22.5s-19 36.5 -19 64.5v101c0 28 6.33301 49.5 19 64.5s32.334 22.5 59.001 22.5c26 0 45.5 -7.66699 58.5 -23s19.5 -36.666 19.5 -63.999v-101zM614 711.996h-60l-334 -712h60z
M335 478.996v105c0 40.667 -12.667 73.334 -38 98.001s-57.666 37 -96.999 37s-71.666 -12.333 -96.999 -37s-38 -57.334 -38 -98.001v-105c0 -40 12.667 -72.333 38 -97s57.666 -37 96.999 -37s71.666 12.333 96.999 37s38 57 38 97zM278 480.996
c0 -27.333 -6.50098 -48.501 -19.501 -63.501s-32.5 -22.5 -58.5 -22.5s-45.5 7.5 -58.5 22.5s-19.5 36.167 -19.5 63.5v101c0 28 6.33301 49.5 19 64.5s32.334 22.5 59.001 22.5c26 0 45.5 -7.66699 58.5 -23s19.5 -36.666 19.5 -63.999v-101z" />
    <glyph glyph-name="Scaron" horiz-adv-x="588" 
d="M532 196c0 60 -20.0049 106.996 -60.0049 140.996c-15.333 13.333 -32.666 23.833 -51.999 31.5s-45.333 13.834 -78 18.501l-38 6l-40 6c-18.667 3.33301 -36.667 8.33301 -54 15s-31.333 14.667 -42 24c-21.333 18.667 -32 46 -32 82c0 40 13.333 72 40 96
s63.334 36 110.001 36c36.667 0 67.834 -5 93.501 -15s49.834 -25.333 72.501 -46l49 49c-30.667 28 -62.334 48 -95.001 60s-71.667 18 -117 18c-70 0 -125.5 -18.167 -166.5 -54.5s-61.5 -85.166 -61.5 -146.499c0 -56.667 18 -101 54 -133
c30.667 -26.667 74.334 -44.667 131.001 -54l41 -6l42 -7c26.667 -4 46 -8.16699 58 -12.5s23.667 -11.5 35 -21.5c22.667 -20 34 -49.667 34 -89c0 -41.333 -15 -73.666 -45 -96.999s-71 -35 -123 -35c-40.667 0 -76 5.83301 -106 17.5s-59.333 31.834 -88 60.501l-52 -52
c33.333 -33.333 69 -57.333 107 -72s83.667 -22 137 -22c74.667 0 134.334 18.167 179.001 54.5s67 85.5 67 147.5zM447.995 933.996h-69l-90 -105l-90 105h-69l125 -153h68z" />
    <glyph glyph-name="Scaron" unicode="&#x160;" horiz-adv-x="588" 
d="M532 196c0 60 -20.0049 106.996 -60.0049 140.996c-15.333 13.333 -32.666 23.833 -51.999 31.5s-45.333 13.834 -78 18.501l-38 6l-40 6c-18.667 3.33301 -36.667 8.33301 -54 15s-31.333 14.667 -42 24c-21.333 18.667 -32 46 -32 82c0 40 13.333 72 40 96
s63.334 36 110.001 36c36.667 0 67.834 -5 93.501 -15s49.834 -25.333 72.501 -46l49 49c-30.667 28 -62.334 48 -95.001 60s-71.667 18 -117 18c-70 0 -125.5 -18.167 -166.5 -54.5s-61.5 -85.166 -61.5 -146.499c0 -56.667 18 -101 54 -133
c30.667 -26.667 74.334 -44.667 131.001 -54l41 -6l42 -7c26.667 -4 46 -8.16699 58 -12.5s23.667 -11.5 35 -21.5c22.667 -20 34 -49.667 34 -89c0 -41.333 -15 -73.666 -45 -96.999s-71 -35 -123 -35c-40.667 0 -76 5.83301 -106 17.5s-59.333 31.834 -88 60.501l-52 -52
c33.333 -33.333 69 -57.333 107 -72s83.667 -22 137 -22c74.667 0 134.334 18.167 179.001 54.5s67 85.5 67 147.5zM447.995 933.996h-69l-90 -105l-90 105h-69l125 -153h68z" />
    <glyph glyph-name="guilsinglleft" horiz-adv-x="328" 
d="M250 58v89l-120 121l120 120v90l-210 -210z" />
    <glyph glyph-name="guilsinglleft" unicode="&#x2039;" horiz-adv-x="328" 
d="M250 58v89l-120 121l120 120v90l-210 -210z" />
    <glyph glyph-name="OE" horiz-adv-x="989" 
d="M574 67l0.00195312 260.001h304v64h-304v254h357v67h-434v-74c-43.333 53.333 -101 80 -173 80c-71.333 0 -131.666 -24.667 -180.999 -74c-16 -16 -28.667 -32.833 -38 -50.5s-16 -37.5 -20 -59.5s-6.5 -45.833 -7.5 -71.5s-1.5 -61.167 -1.5 -106.5
s0.5 -80.833 1.5 -106.5s3.5 -49.334 7.5 -71.001s10.667 -41.5 20 -59.5s22 -35 38 -51c49.333 -49.333 109.666 -74 180.999 -74c33.333 0 65.166 6.83301 95.499 20.5s56.166 33.5 77.499 59.5v-74h436v67h-359zM497.002 356.001c0 -42 -0.5 -75.001 -1.5 -99.001
s-3 -44.667 -6 -62s-7.83301 -32.333 -14.5 -45s-15.667 -25 -27 -37c-15.333 -16 -33.833 -28.5 -55.5 -37.5s-44.167 -13.5 -67.5 -13.5s-45.666 4.5 -66.999 13.5s-40 21.5 -56 37.5c-11.333 12 -20.333 24.333 -27 37s-11.667 27.667 -15 45s-5.5 38.333 -6.5 63
s-1.5 57.334 -1.5 98.001c0 41.333 0.5 74.333 1.5 99s3.16699 45.5 6.5 62.5s8.33301 32 15 45s15.667 25.167 27 36.5c16 16 34.667 28.5 56 37.5s43.666 13.5 66.999 13.5s45.833 -4.5 67.5 -13.5s40.167 -21.5 55.5 -37.5c11.333 -12 20.333 -24.333 27 -37
s11.5 -27.667 14.5 -45s5 -38 6 -62s1.5 -57 1.5 -99z" />
    <glyph glyph-name="OE" unicode="&#x152;" horiz-adv-x="989" 
d="M574 67l0.00195312 260.001h304v64h-304v254h357v67h-434v-74c-43.333 53.333 -101 80 -173 80c-71.333 0 -131.666 -24.667 -180.999 -74c-16 -16 -28.667 -32.833 -38 -50.5s-16 -37.5 -20 -59.5s-6.5 -45.833 -7.5 -71.5s-1.5 -61.167 -1.5 -106.5
s0.5 -80.833 1.5 -106.5s3.5 -49.334 7.5 -71.001s10.667 -41.5 20 -59.5s22 -35 38 -51c49.333 -49.333 109.666 -74 180.999 -74c33.333 0 65.166 6.83301 95.499 20.5s56.166 33.5 77.499 59.5v-74h436v67h-359zM497.002 356.001c0 -42 -0.5 -75.001 -1.5 -99.001
s-3 -44.667 -6 -62s-7.83301 -32.333 -14.5 -45s-15.667 -25 -27 -37c-15.333 -16 -33.833 -28.5 -55.5 -37.5s-44.167 -13.5 -67.5 -13.5s-45.666 4.5 -66.999 13.5s-40 21.5 -56 37.5c-11.333 12 -20.333 24.333 -27 37s-11.667 27.667 -15 45s-5.5 38.333 -6.5 63
s-1.5 57.334 -1.5 98.001c0 41.333 0.5 74.333 1.5 99s3.16699 45.5 6.5 62.5s8.33301 32 15 45s15.667 25.167 27 36.5c16 16 34.667 28.5 56 37.5s43.666 13.5 66.999 13.5s45.833 -4.5 67.5 -13.5s40.167 -21.5 55.5 -37.5c11.333 -12 20.333 -24.333 27 -37
s11.5 -27.667 14.5 -45s5 -38 6 -62s1.5 -57 1.5 -99z" />
    <glyph glyph-name="Zcaron" horiz-adv-x="556" 
d="M499 0v68h-359l359 580v64h-428v-68h342l-356 -572v-72h442zM443 934h-69l-90 -105l-90 105h-69l125 -153h68z" />
    <glyph glyph-name="Zcaron" unicode="&#x17d;" horiz-adv-x="556" 
d="M499 0v68h-359l359 580v64h-428v-68h342l-356 -572v-72h442zM443 934h-69l-90 -105l-90 105h-69l125 -153h68z" />
    <glyph glyph-name="quoteleft" horiz-adv-x="263" 
d="M175 628v163l-87 -79v-84h87z" />
    <glyph glyph-name="quoteleft" unicode="&#x2018;" horiz-adv-x="263" 
d="M175 628v163l-87 -79v-84h87z" />
    <glyph glyph-name="quoteright" horiz-adv-x="263" 
d="M175 628v84h-87v-163z" />
    <glyph glyph-name="quoteright" unicode="&#x2019;" horiz-adv-x="263" 
d="M175 628v84h-87v-163z" />
    <glyph glyph-name="quotedblleft" horiz-adv-x="434" 
d="M346 628v163l-88 -79v-84h88zM175 628v163l-87 -79v-84h87z" />
    <glyph glyph-name="quotedblleft" unicode="&#x201c;" horiz-adv-x="434" 
d="M346 628v163l-88 -79v-84h88zM175 628v163l-87 -79v-84h87z" />
    <glyph glyph-name="quotedblright" horiz-adv-x="434" 
d="M346 628v84h-88v-163zM175 628v84h-87v-163z" />
    <glyph glyph-name="quotedblright" unicode="&#x201d;" horiz-adv-x="434" 
d="M346 628v84h-88v-163zM175 628v84h-87v-163z" />
    <glyph glyph-name="bullet" horiz-adv-x="532" 
d="M429 334c0 22 -4.16699 43 -12.5 63s-20 37.5 -35 52.5s-32.5 26.667 -52.5 35s-41 12.5 -63 12.5s-43 -4.16699 -63 -12.5s-37.5 -20 -52.5 -35s-26.667 -32.5 -35 -52.5s-12.5 -41 -12.5 -63s4.16699 -43 12.5 -63s20 -37.5 35 -52.5s32.5 -26.667 52.5 -35
s41 -12.5 63 -12.5s43 4.16699 63 12.5s37.5 20 52.5 35s26.667 32.5 35 52.5s12.5 41 12.5 63z" />
    <glyph glyph-name="bullet" unicode="&#x2022;" horiz-adv-x="532" 
d="M429 334c0 22 -4.16699 43 -12.5 63s-20 37.5 -35 52.5s-32.5 26.667 -52.5 35s-41 12.5 -63 12.5s-43 -4.16699 -63 -12.5s-37.5 -20 -52.5 -35s-26.667 -32.5 -35 -52.5s-12.5 -41 -12.5 -63s4.16699 -43 12.5 -63s20 -37.5 35 -52.5s32.5 -26.667 52.5 -35
s41 -12.5 63 -12.5s43 4.16699 63 12.5s37.5 20 52.5 35s26.667 32.5 35 52.5s12.5 41 12.5 63z" />
    <glyph glyph-name="endash" 
d="M470 236v67h-418v-67h418z" />
    <glyph glyph-name="endash" unicode="&#x2013;" 
d="M470 236v67h-418v-67h418z" />
    <glyph glyph-name="emdash" horiz-adv-x="914" 
d="M838 236v68h-762v-68h762z" />
    <glyph glyph-name="emdash" unicode="&#x2014;" horiz-adv-x="914" 
d="M838 236v68h-762v-68h762z" />
    <glyph glyph-name="tilde" horiz-adv-x="500" 
d="M407 659l-37.0029 35.998c-13.333 -13.333 -24.166 -22 -32.499 -26s-17.166 -6 -26.499 -6c-16 0 -34.667 6.66699 -56 20c-14.667 8.66699 -26.834 14.834 -36.501 18.501s-21.167 5.5 -34.5 5.5c-14.667 0 -29 -3.33301 -43 -10s-31.333 -20.334 -52 -41.001l37 -36
c14 14 25 22.833 33 26.5s16.667 5.5 26 5.5c8.66699 0 16.834 -1.66699 24.501 -5s17.834 -8.66602 30.501 -15.999h1c14 -8 26 -13.833 36 -17.5s21.667 -5.5 35 -5.5c14 0 28.167 3.33301 42.5 10s31.833 20.334 52.5 41.001z" />
    <glyph glyph-name="tilde" unicode="&#x2dc;" horiz-adv-x="500" 
d="M407 659l-37.0029 35.998c-13.333 -13.333 -24.166 -22 -32.499 -26s-17.166 -6 -26.499 -6c-16 0 -34.667 6.66699 -56 20c-14.667 8.66699 -26.834 14.834 -36.501 18.501s-21.167 5.5 -34.5 5.5c-14.667 0 -29 -3.33301 -43 -10s-31.333 -20.334 -52 -41.001l37 -36
c14 14 25 22.833 33 26.5s16.667 5.5 26 5.5c8.66699 0 16.834 -1.66699 24.501 -5s17.834 -8.66602 30.501 -15.999h1c14 -8 26 -13.833 36 -17.5s21.667 -5.5 35 -5.5c14 0 28.167 3.33301 42.5 10s31.833 20.334 52.5 41.001z" />
    <glyph glyph-name="trademark" horiz-adv-x="839" 
d="M781 285v427h-57l-130 -259l-130 259h-58v-427h58v308l102 -202h56l102 202v-308h57zM331 659v53h-295v-53h118v-374h58v374h119z" />
    <glyph glyph-name="trademark" unicode="&#x2122;" horiz-adv-x="839" 
d="M781 285v427h-57l-130 -259l-130 259h-58v-427h58v308l102 -202h56l102 202v-308h57zM331 659v53h-295v-53h118v-374h58v374h119z" />
    <glyph glyph-name="scaron" horiz-adv-x="496" 
d="M445 144c0 43.333 -12.502 75.334 -37.502 96.001s-60.833 33 -107.5 37l-39 4l-40 3c-30 2.66699 -51.833 10 -65.5 22s-20.5 28.667 -20.5 50c0 25.333 9.5 45.166 28.5 59.499s46.167 21.5 81.5 21.5c53.333 0 97 -13 131 -39l47 47
c-21.333 17.333 -47.166 30.5 -77.499 39.5s-63.5 13.5 -99.5 13.5c-53.333 0 -96.833 -13 -130.5 -39s-50.5 -61 -50.5 -105c0 -80 49 -124 147 -132l39 -3l42 -4c54.667 -4.66699 82 -28.667 82 -72c0 -28.667 -11.5 -50.334 -34.5 -65.001s-55.167 -22 -96.5 -22
c-32 0 -60.833 4.5 -86.5 13.5s-47.834 23.5 -66.501 43.5l-48 -48c26.667 -25.333 56.334 -43.5 89.001 -54.5s70.334 -16.5 113.001 -16.5c60.667 0 109.167 13.333 145.5 40s54.5 63.334 54.5 110.001zM404.998 747.001h-69l-90 -105l-90 105h-69l125 -153h68z" />
    <glyph glyph-name="scaron" unicode="&#x161;" horiz-adv-x="496" 
d="M445 144c0 43.333 -12.502 75.334 -37.502 96.001s-60.833 33 -107.5 37l-39 4l-40 3c-30 2.66699 -51.833 10 -65.5 22s-20.5 28.667 -20.5 50c0 25.333 9.5 45.166 28.5 59.499s46.167 21.5 81.5 21.5c53.333 0 97 -13 131 -39l47 47
c-21.333 17.333 -47.166 30.5 -77.499 39.5s-63.5 13.5 -99.5 13.5c-53.333 0 -96.833 -13 -130.5 -39s-50.5 -61 -50.5 -105c0 -80 49 -124 147 -132l39 -3l42 -4c54.667 -4.66699 82 -28.667 82 -72c0 -28.667 -11.5 -50.334 -34.5 -65.001s-55.167 -22 -96.5 -22
c-32 0 -60.833 4.5 -86.5 13.5s-47.834 23.5 -66.501 43.5l-48 -48c26.667 -25.333 56.334 -43.5 89.001 -54.5s70.334 -16.5 113.001 -16.5c60.667 0 109.167 13.333 145.5 40s54.5 63.334 54.5 110.001zM404.998 747.001h-69l-90 -105l-90 105h-69l125 -153h68z" />
    <glyph glyph-name="guilsinglright" horiz-adv-x="328" 
d="M288 268l-210 210v-90l121 -120l-121 -121v-89z" />
    <glyph glyph-name="guilsinglright" unicode="&#x203a;" horiz-adv-x="328" 
d="M288 268l-210 210v-90l121 -120l-121 -121v-89z" />
    <glyph glyph-name="oe" horiz-adv-x="861" 
d="M798 227l0.00195312 33c0 73.333 -17.833 131.333 -53.5 174s-85.167 64 -148.5 64c-74.667 0 -129 -31.667 -163 -95c-15.333 30 -37.833 53.333 -67.5 70s-63.167 25 -100.5 25c-56.667 0 -103.667 -18.667 -141 -56c-23.333 -23.333 -39.166 -51 -47.499 -83
s-12.5 -69.667 -12.5 -113s4.16699 -81 12.5 -113s24.166 -59.667 47.499 -83c37.333 -37.333 84.333 -56 141 -56c37.333 0 70.666 8.33301 99.999 25s51.666 40 66.999 70c35.333 -63.333 94.333 -95 177 -95c40.667 0 74.167 6 100.5 18s52.833 31.333 79.5 58l-49 43
c-20 -20 -39.5 -34.333 -58.5 -43s-42.5 -13 -70.5 -13c-46.667 0 -82.5 14.833 -107.5 44.5s-37.5 71.5 -37.5 125.5h332zM727.002 281l-260.999 0.000976562c1.33301 20.667 2.83301 36.167 4.5 46.5s5.16699 22.166 10.5 35.499c9.33301 22.667 24.333 40.667 45 54
s44 20 70 20s49.333 -6.66699 70 -20s35.667 -31.333 45 -54c5.33301 -13.333 9.16602 -25.333 11.499 -36s3.83301 -26 4.5 -46zM394.003 246.001c0 -34.667 -2.5 -64.667 -7.5 -90s-15.5 -46 -31.5 -62c-24 -24 -54 -36 -90 -36c-35.333 0 -65 12 -89 36
c-16 16 -26.667 36.667 -32 62s-8 55.333 -8 90s2.66699 64.667 8 90s16 46 32 62c24 24 53.667 36 89 36c36 0 66 -12 90 -36c16 -16 26.5 -36.667 31.5 -62s7.5 -55.333 7.5 -90z" />
    <glyph glyph-name="oe" unicode="&#x153;" horiz-adv-x="861" 
d="M798 227l0.00195312 33c0 73.333 -17.833 131.333 -53.5 174s-85.167 64 -148.5 64c-74.667 0 -129 -31.667 -163 -95c-15.333 30 -37.833 53.333 -67.5 70s-63.167 25 -100.5 25c-56.667 0 -103.667 -18.667 -141 -56c-23.333 -23.333 -39.166 -51 -47.499 -83
s-12.5 -69.667 -12.5 -113s4.16699 -81 12.5 -113s24.166 -59.667 47.499 -83c37.333 -37.333 84.333 -56 141 -56c37.333 0 70.666 8.33301 99.999 25s51.666 40 66.999 70c35.333 -63.333 94.333 -95 177 -95c40.667 0 74.167 6 100.5 18s52.833 31.333 79.5 58l-49 43
c-20 -20 -39.5 -34.333 -58.5 -43s-42.5 -13 -70.5 -13c-46.667 0 -82.5 14.833 -107.5 44.5s-37.5 71.5 -37.5 125.5h332zM727.002 281l-260.999 0.000976562c1.33301 20.667 2.83301 36.167 4.5 46.5s5.16699 22.166 10.5 35.499c9.33301 22.667 24.333 40.667 45 54
s44 20 70 20s49.333 -6.66699 70 -20s35.667 -31.333 45 -54c5.33301 -13.333 9.16602 -25.333 11.499 -36s3.83301 -26 4.5 -46zM394.003 246.001c0 -34.667 -2.5 -64.667 -7.5 -90s-15.5 -46 -31.5 -62c-24 -24 -54 -36 -90 -36c-35.333 0 -65 12 -89 36
c-16 16 -26.667 36.667 -32 62s-8 55.333 -8 90s2.66699 64.667 8 90s16 46 32 62c24 24 53.667 36 89 36c36 0 66 -12 90 -36c16 -16 26.5 -36.667 31.5 -62s7.5 -55.333 7.5 -90z" />
    <glyph glyph-name="zcaron" horiz-adv-x="459" 
d="M407 0v64h-275l275 367v61h-342v-64h259l-274 -366v-62h357zM395 747h-69l-90 -105l-90 105h-69l125 -153h68z" />
    <glyph glyph-name="zcaron" unicode="&#x17e;" horiz-adv-x="459" 
d="M407 0v64h-275l275 367v61h-342v-64h259l-274 -366v-62h357zM395 747h-69l-90 -105l-90 105h-69l125 -153h68z" />
    <glyph glyph-name="Ydieresis" horiz-adv-x="515" 
d="M506 712h-82l-166 -341l-168 341h-82l212 -418v-294h76v294zM399 789v89h-72v-89h72zM187 789v89h-72v-89h72z" />
    <glyph glyph-name="Ydieresis" unicode="&#x178;" horiz-adv-x="515" 
d="M506 712h-82l-166 -341l-168 341h-82l212 -418v-294h76v294zM399 789v89h-72v-89h72zM187 789v89h-72v-89h72z" />
    <glyph glyph-name="nonbreakingspace" unicode="&#xa0;" horiz-adv-x="249" 
 />
    <glyph glyph-name="exclamdown" unicode="&#xa1;" horiz-adv-x="316" 
d="M185 408v84h-86v-84h86zM184 -220l-11 512h-62l-10 -512h83z" />
    <glyph glyph-name="cent" unicode="&#xa2;" horiz-adv-x="498" 
d="M448 189l-49 46c-16.667 -18.667 -32.5 -32.167 -47.5 -40.5s-32.5 -13.166 -52.5 -14.499v372c20 -1.33301 37.5 -6.16602 52.5 -14.499s30.833 -21.833 47.5 -40.5l49 46c-22.667 24.667 -45 42.667 -67 54s-48 18 -78 20v95h-59v-97
c-56 -8 -100.167 -33.833 -132.5 -77.5s-48.5 -100.834 -48.5 -171.501s16.167 -127.834 48.5 -171.501s76.5 -69.5 132.5 -77.5v-117h59v115c30 2 56 8.66699 78 20s44.333 29.333 67 54zM248 182c-32.667 6 -59.334 23.3311 -80.001 51.998
c-11.333 16 -19.666 34.333 -24.999 55s-8 46.334 -8 77.001s2.66699 56.334 8 77.001s13.666 39 24.999 55c20.667 28.667 47.334 46 80.001 52v-368z" />
    <glyph glyph-name="sterling" unicode="&#xa3;" horiz-adv-x="548" 
d="M496 0v67.999h-309v262h146v54h-146v102c0 52.667 12.667 93.167 38 121.5s61.333 42.5 108 42.5c26.667 0 48 -4 64 -12s31.667 -19.667 47 -35l52 51c-22 22 -46.167 38.167 -72.5 48.5s-56.5 15.5 -90.5 15.5c-66 0 -119.667 -20.167 -161 -60.5
s-62 -94.166 -62 -161.499v-112h-63v-54h63v-330h386z" />
    <glyph glyph-name="currency" unicode="&#xa4;" horiz-adv-x="660" 
d="M582 65l-74.001 74c14 18.667 24.833 39.334 32.5 62.001s11.5 46 11.5 70s-3.83301 47.333 -11.5 70s-18.5 43.334 -32.5 62.001l74 73l-46 46l-75 -73c-38 28.667 -81.667 43 -131 43c-50 0 -94 -14.333 -132 -43l-74 73l-46 -46l74 -73
c-14 -18.667 -24.833 -39.334 -32.5 -62.001s-11.5 -46 -11.5 -70s3.83301 -47.333 11.5 -70s18.5 -43.334 32.5 -62.001l-74 -74l46 -46l74 74c18.667 -14 39.334 -24.833 62.001 -32.5s46 -11.5 70 -11.5c48 0 91.667 14.667 131 44l75 -74zM484.999 271
c0 -21.333 -4 -41.5 -12 -60.5s-19.167 -35.667 -33.5 -50s-30.833 -25.5 -49.5 -33.5s-38.667 -12 -60 -12s-41.5 4 -60.5 12s-35.667 19.167 -50 33.5s-25.5 31 -33.5 50s-12 39.167 -12 60.5s4 41.333 12 60s19.167 35.167 33.5 49.5s31 25.5 50 33.5s39.167 12 60.5 12
s41.333 -4 60 -12s35.167 -19.167 49.5 -33.5s25.5 -30.833 33.5 -49.5s12 -38.667 12 -60z" />
    <glyph glyph-name="yen" unicode="&#xa5;" horiz-adv-x="514" 
d="M506 712h-81l-167 -341l-168 341h-82l157 -311h-100v-54h128l26 -53v-52h-154v-55h154v-187h77v187h153v55h-153v52l26 53h127v54h-100z" />
    <glyph glyph-name="brokenbar" unicode="&#xa6;" horiz-adv-x="335" 
d="M199 436v350h-72v-350h72zM199 -74v350h-72v-350h72z" />
    <glyph glyph-name="section" unicode="&#xa7;" horiz-adv-x="557" 
d="M470 254c0 45.333 -12 84 -36 116s-57.667 54.333 -101 67l-78 22c-26.667 7.33301 -47.334 18.833 -62.001 34.5s-22 36.167 -22 61.5c0 32 9.5 56.5 28.5 73.5s45.5 25.5 79.5 25.5c33.333 0 59.333 -7.5 78 -22.5s29.334 -38.5 32.001 -70.5h72
c-2 48 -19.667 86.167 -53 114.5s-76.333 42.5 -129 42.5s-95.834 -15.167 -129.501 -45.5s-50.5 -69.833 -50.5 -118.5c0 -34.667 7.83301 -62.834 23.5 -84.501s38.834 -39.5 69.501 -53.5c-30 -14.667 -55 -36 -75 -64s-30 -61.333 -30 -100c0 -46 12 -84.833 36 -116.5
s57.667 -53.834 101 -66.501l78 -22c27.333 -8 48.833 -21.167 64.5 -39.5s23.5 -39.166 23.5 -62.499c0 -33.333 -9.83301 -59.166 -29.5 -77.499s-46.834 -27.5 -81.501 -27.5c-34 0 -61 8.16699 -81 24.5s-31.667 39.833 -35 70.5h-73
c2.66699 -51.333 21.834 -91 57.501 -119s79.5 -42 131.5 -42c52.667 0 96.5 15.833 131.5 47.5s52.5 73.167 52.5 124.5c0 35.333 -8.66699 65.5 -26 90.5s-41 42.833 -71 53.5c29.333 14.667 54 36.167 74 64.5s30 61.5 30 99.5zM397 253
c0 -20.667 -2.66602 -38.167 -7.99902 -52.5s-13.333 -27.5 -24 -39.5c-22 -24 -50.667 -36 -86 -36s-64 12 -86 36c-10 11.333 -18 24.5 -24 39.5s-9 32.5 -9 52.5s2.66699 37.167 8 51.5s13.666 27.833 24.999 40.5c22 24 50.667 36 86 36c33.333 0 62 -12 86 -36
c12 -12 20.333 -25.167 25 -39.5s7 -31.833 7 -52.5z" />
    <glyph glyph-name="dieresis" unicode="&#xa8;" horiz-adv-x="500" 
d="M392 602v89h-72v-89h72zM180 602v89h-72v-89h72z" />
    <glyph glyph-name="copyright" unicode="&#xa9;" horiz-adv-x="881" 
d="M802 356c0 49.333 -9.33301 96 -28 140s-44.667 82.667 -78 116s-72 59.333 -116 78s-90.667 28 -140 28s-96 -9.33301 -140 -28s-82.667 -44.667 -116 -78s-59.333 -72 -78 -116s-28 -90.667 -28 -140s9.33301 -96 28 -140s44.667 -82.667 78 -116s72 -59.333 116 -78
s90.667 -28 140 -28s96 9.33301 140 28s82.667 44.667 116 78s59.333 72 78 116s28 90.667 28 140zM744 356c0 -41.333 -7.83301 -80.833 -23.5 -118.5s-37.5 -70.667 -65.5 -99s-60.5 -50.5 -97.5 -66.5s-76.167 -24 -117.5 -24s-80.5 8 -117.5 24s-69.333 38.167 -97 66.5
s-49.334 61.333 -65.001 99s-23.5 77.167 -23.5 118.5s7.83301 80.833 23.5 118.5s37.334 70.667 65.001 99s60 50.5 97 66.5s76.167 24 117.5 24s80.5 -8 117.5 -24s69.5 -38.167 97.5 -66.5s49.833 -61.333 65.5 -99s23.5 -77.167 23.5 -118.5zM576 205l-36.002 36.002
c-16 -14 -31.167 -23.833 -45.5 -29.5s-30.833 -8.5 -49.5 -8.5c-42.667 0 -73.667 14 -93 42s-29 65 -29 111s9.66699 83.167 29 111.5s50.333 42.5 93 42.5c18.667 0 35 -2.83301 49 -8.5s29.333 -15.834 46 -30.501l36 36c-21.333 18.667 -41.666 32.167 -60.999 40.5
s-42.666 12.5 -69.999 12.5c-56.667 0 -100.5 -18.833 -131.5 -56.5s-46.5 -86.834 -46.5 -147.501s15.5 -109.667 46.5 -147s74.833 -56 131.5 -56c27.333 0 51 4.16699 71 12.5s40 21.5 60 39.5z" />
    <glyph glyph-name="ordfeminine" unicode="&#xaa;" horiz-adv-x="449" 
d="M365 319l0.00195312 265.002c0 43.333 -12.833 76.166 -38.5 98.499s-64.5 33.5 -116.5 33.5c-32.667 0 -59.834 -4.33301 -81.501 -13s-41.167 -24.334 -58.5 -47.001l41 -37c12 16.667 25.167 28.167 39.5 34.5s33.833 9.5 58.5 9.5c34.667 0 59.5 -6.83301 74.5 -20.5
s22.5 -34.834 22.5 -63.501v-36h-115c-42.667 0 -75.834 -10.167 -99.501 -30.5s-35.5 -48.166 -35.5 -83.499c0 -31.333 10 -57.666 30 -78.999c12.667 -12.667 27.5 -21.834 44.5 -27.501s38.833 -8.5 65.5 -8.5c25.333 0 46.333 3 63 9s32.667 16.667 48 32v-36h58z
M306.002 458.002c0 -32.667 -6.33301 -55 -19 -67c-10.667 -10.667 -22.667 -17.5 -36 -20.5s-30 -4.5 -50 -4.5c-57.333 0 -86 21.667 -86 65c0 44.667 28 67 84 67h107v-40z" />
    <glyph glyph-name="guillemotleft" unicode="&#xab;" horiz-adv-x="554" 
d="M476 58v89l-121 121l121 120v90l-210 -210zM250 58v89l-120 121l120 120v90l-210 -210z" />
    <glyph glyph-name="logicalnot" unicode="&#xac;" 
d="M471 103v204h-420v-67h353v-137h67z" />
    <glyph glyph-name="minus" unicode="&#xad;" 
d="M470 236v67h-418v-67h418z" />
    <glyph glyph-name="registered" unicode="&#xae;" horiz-adv-x="881" 
d="M802 356c0 49.333 -9.33301 96 -28 140s-44.667 82.667 -78 116s-72 59.333 -116 78s-90.667 28 -140 28s-96 -9.33301 -140 -28s-82.667 -44.667 -116 -78s-59.333 -72 -78 -116s-28 -90.667 -28 -140s9.33301 -96 28 -140s44.667 -82.667 78 -116s72 -59.333 116 -78
s90.667 -28 140 -28s96 9.33301 140 28s82.667 44.667 116 78s59.333 72 78 116s28 90.667 28 140zM745 356c0 -42 -7.83301 -81.833 -23.5 -119.5s-37.667 -70.667 -66 -99s-61 -50.5 -98 -66.5s-76.167 -24 -117.5 -24s-80.5 8 -117.5 24s-69.5 38.333 -97.5 67
s-49.833 61.667 -65.5 99s-23.5 77 -23.5 119s7.83301 81.833 23.5 119.5s37.5 70.667 65.5 99s60.5 50.5 97.5 66.5s76.167 24 117.5 24s80.5 -8 117.5 -24s69.667 -38.333 98 -67s50.333 -61.667 66 -99s23.5 -77 23.5 -119zM592 158l-95 169c26 8 46.667 21.167 62 39.5
s23 41.5 23 69.5c0 33.333 -12.167 61.5 -36.5 84.5s-53.833 34.5 -88.5 34.5h-135v-397h55v162h60l91 -162h64zM526 436c0 -20 -7 -36.5 -21 -49.5s-32 -19.5 -54 -19.5h-74v139h74c22 0 40 -6.66699 54 -20s21 -30 21 -50z" />
    <glyph glyph-name="macron" unicode="&#xaf;" horiz-adv-x="500" 
d="M401 614v57h-302v-57h302z" />
    <glyph glyph-name="degree" unicode="&#xb0;" horiz-adv-x="463" 
d="M396 557c0 22.667 -4.16699 44 -12.5 64s-20 37.5 -35 52.5s-32.5 26.667 -52.5 35s-41.333 12.5 -64 12.5s-44 -4.16699 -64 -12.5s-37.5 -20 -52.5 -35s-26.833 -32.5 -35.5 -52.5s-13 -41.333 -13 -64s4.33301 -44 13 -64s20.5 -37.5 35.5 -52.5
s32.5 -26.667 52.5 -35s41.333 -12.5 64 -12.5s44 4.16699 64 12.5s37.5 20.166 52.5 35.499s26.667 32.833 35 52.5s12.5 40.834 12.5 63.501zM335 557c0 -30 -9.83301 -55.167 -29.5 -75.5s-44.167 -30.5 -73.5 -30.5s-54 10.167 -74 30.5s-30 45.5 -30 75.5
s9.83301 55.167 29.5 75.5s44.167 30.5 73.5 30.5s54 -10.167 74 -30.5s30 -45.5 30 -75.5z" />
    <glyph glyph-name="plusminus" unicode="&#xb1;" 
d="M470 289v67h-175v175h-67v-175h-176v-67h176v-177h67v177h175zM470 0v67h-418v-67h418z" />
    <glyph glyph-name="twosuperior" unicode="&#xb2;" horiz-adv-x="342" 
d="M294 285l0.000976562 52.001h-177l138 168c14 17.333 24 32.666 30 45.999s9 28.666 9 45.999c0 36 -11.333 64.833 -34 86.5s-52.334 32.5 -89.001 32.5c-36 0 -65.5 -10.833 -88.5 -32.5s-34.5 -50.5 -34.5 -86.5h58c0 22.667 6.16699 39.5 18.5 50.5
s27.833 16.5 46.5 16.5c20 0 35.833 -6 47.5 -18s17.5 -28.333 17.5 -49c0 -19.333 -7.66699 -38.666 -23 -57.999l-165 -202v-52h246z" />
    <glyph glyph-name="threesuperior" unicode="&#xb3;" horiz-adv-x="356" 
d="M308 405c0 26 -5.16699 47.167 -15.5 63.5s-25.5 28.5 -45.5 36.5c36 16.667 54 47.334 54 92.001c0 35.333 -11.5 64 -34.5 86s-52.5 33 -88.5 33c-34 0 -62.667 -10.333 -86 -31s-36 -48.667 -38 -84h57c1.33301 19.333 8 34.666 20 45.999s27.667 17 47 17
s35.166 -6 47.499 -18s18.5 -28.667 18.5 -50s-5.66699 -38 -17 -50s-28.333 -18 -51 -18h-9v-50h9c50 0 75 -24.333 75 -73c0 -22.667 -6.66699 -40.5 -20 -53.5s-30.666 -19.5 -51.999 -19.5c-20 0 -37 5.66699 -51 17s-21.333 28 -22 50h-58
c1.33301 -38.667 14.333 -68.167 39 -88.5s55.334 -30.5 92.001 -30.5c37.333 0 68.166 11 92.499 33s36.5 52.667 36.5 92z" />
    <glyph glyph-name="acute" unicode="&#xb4;" horiz-adv-x="500" 
d="M375 747h-86l-88 -153h66z" />
    <glyph glyph-name="mu" unicode="&#xb5;" horiz-adv-x="561" 
d="M471 0v492h-72v-303c0 -42 -11 -74.333 -33 -97s-52 -34 -90 -34s-67.667 11.167 -89 33.5s-32 54.833 -32 97.5v303h-72v-712h72v251c26.667 -24.667 62 -37 106 -37c56.667 0 102.667 20.333 138 61v-55h72z" />
    <glyph glyph-name="paragraph" unicode="&#xb6;" horiz-adv-x="603" 
d="M500 -220v931.999h-241c-66.667 0 -119.5 -18.5 -158.5 -55.5s-58.5 -83.167 -58.5 -138.5c0 -24.667 4.66699 -48.5 14 -71.5s22.666 -43.667 39.999 -62s38.333 -32.666 63 -42.999s51.334 -15.5 80.001 -15.5v-546h72v864h117v-864h72z" />
    <glyph glyph-name="periodcentered" unicode="&#xb7;" horiz-adv-x="270" 
d="M182 223v94h-94v-94h94z" />
    <glyph glyph-name="periodcentered" unicode="&#x22c5;" horiz-adv-x="270" 
d="M182 223v94h-94v-94h94z" />
    <glyph glyph-name="periodcentered" unicode="&#x2227;" horiz-adv-x="270" 
d="M182 223v94h-94v-94h94z" />
    <glyph glyph-name="periodcentered" unicode="&#x2224;" horiz-adv-x="270" 
d="M182 223v94h-94v-94h94z" />
    <glyph glyph-name="periodcentered" unicode="&#x2219;" horiz-adv-x="270" 
d="M182 223v94h-94v-94h94z" />
    <glyph glyph-name="cedilla" unicode="&#xb8;" horiz-adv-x="500" 
d="M313 -67h-67l-71 -149h79z" />
    <glyph glyph-name="onesuperior" unicode="&#xb9;" horiz-adv-x="261" 
d="M183 285v427h-57l-83 -71v-66l83 73v-363h57z" />
    <glyph glyph-name="ordmasculine" unicode="&#xba;" horiz-adv-x="455" 
d="M387 515c0 34 -3.33105 63.833 -9.99805 89.5s-19.334 47.834 -38.001 66.501c-30 30 -67.333 45 -112 45s-82 -15 -112 -45c-18.667 -18.667 -31.334 -40.834 -38.001 -66.501s-10 -55.5 -10 -89.5c0 -34.667 3.33301 -64.5 10 -89.5s19.334 -47.167 38.001 -66.5
c29.333 -29.333 66.666 -44 111.999 -44s82.666 14.667 111.999 44c18.667 19.333 31.334 41.5 38.001 66.5s10 54.833 10 89.5zM328.002 515c0 -26.667 -2.00195 -49.8311 -6.00195 -69.498s-12.333 -35.834 -25 -48.501c-19.333 -19.333 -42.666 -29 -69.999 -29
s-50.666 9.66699 -69.999 29c-12.667 12.667 -20.834 28.667 -24.501 48s-5.5 42.666 -5.5 69.999c0 28 1.83301 51.667 5.5 71s11.834 35.333 24.501 48c18.667 18.667 42 28 70 28s51.333 -9.33301 70 -28c12.667 -12.667 21 -29 25 -49s6 -43.333 6 -70z" />
    <glyph glyph-name="guillemotright" unicode="&#xbb;" horiz-adv-x="554" 
d="M514 268l-210 210v-90l120 -120l-120 -121v-89zM288 268l-210 210v-90l121 -120l-121 -121v-89z" />
    <glyph glyph-name="onequarter" unicode="&#xbc;" horiz-adv-x="777" 
d="M737 64v53h-47v105h-56v-105h-109l150 310h-62l-151 -310v-53h172v-64h56v64h47zM566 712h-60l-333 -712h60zM183 285v427h-57l-83 -71v-66l83 73v-363h57z" />
    <glyph glyph-name="onehalf" unicode="&#xbd;" horiz-adv-x="790" 
d="M742 0l0.000976562 52.001h-176l137 168c14 17.333 24 32.666 30 45.999s9 28.666 9 45.999c0 36 -11.333 64.833 -34 86.5s-52.334 32.5 -89.001 32.5c-36 0 -65.5 -10.833 -88.5 -32.5s-34.5 -50.5 -34.5 -86.5h58c0 22.667 6.16699 39.5 18.5 50.5
s27.833 16.5 46.5 16.5c20 0 35.833 -6 47.5 -18s17.5 -28.333 17.5 -49c0 -19.333 -7.66699 -38.666 -23 -57.999l-165 -202v-52h246zM554.001 712.001h-60l-333 -712h60zM183.001 285.001v427h-57l-83 -71v-66l83 73v-363h57z" />
    <glyph glyph-name="threequarters" unicode="&#xbe;" horiz-adv-x="822" 
d="M782 64v53h-47v105h-56v-105h-110l151 310h-62l-151 -310v-53h172v-64h56v64h47zM619 712h-60l-334 -712h60zM308 405c0 26 -5.16699 47.167 -15.5 63.5s-25.5 28.5 -45.5 36.5c36 16.667 54 47.334 54 92.001c0 35.333 -11.5 64 -34.5 86s-52.5 33 -88.5 33
c-34 0 -62.667 -10.333 -86 -31s-36 -48.667 -38 -84h57c1.33301 19.333 8 34.666 20 45.999s27.667 17 47 17s35.166 -6 47.499 -18s18.5 -28.667 18.5 -50s-5.66699 -38 -17 -50s-28.333 -18 -51 -18h-9v-50h9c50 0 75 -24.333 75 -73c0 -22.667 -6.66699 -40.5 -20 -53.5
s-30.666 -19.5 -51.999 -19.5c-20 0 -37 5.66699 -51 17s-21.333 28 -22 50h-58c1.33301 -38.667 14.333 -68.167 39 -88.5s55.334 -30.5 92.001 -30.5c37.333 0 68.166 11 92.499 33s36.5 52.667 36.5 92z" />
    <glyph glyph-name="questiondown" unicode="&#xbf;" horiz-adv-x="497" 
d="M270 408v84h-85v-84h85zM421 -43l-71.999 0.00390625c0 -32.667 -10.5 -60.5 -31.5 -83.5s-48.833 -34.5 -83.5 -34.5c-33.333 0 -61 11.333 -83 34s-33 50.667 -33 84c0 15.333 2.66699 29.166 8 41.499s13.666 26.833 24.999 43.5l81 116c11.333 16 19.5 31 24.5 45
s7.5 30.333 7.5 49v41h-72v-40c0 -8.66699 -1.5 -18.334 -4.5 -29.001s-7.5 -20.334 -13.5 -29.001l-82 -118c-15.333 -22.667 -26.833 -43 -34.5 -61s-11.5 -37.667 -11.5 -59c0 -26 4.83301 -50.333 14.5 -73s23 -42.167 40 -58.5s37 -29 60 -38s47.5 -13.5 73.5 -13.5
c26.667 0 51.5 4.66699 74.5 14s42.833 22.333 59.5 39s29.667 36.167 39 58.5s14 46.166 14 71.499z" />
    <glyph glyph-name="Agrave" unicode="&#xc0;" horiz-adv-x="611" 
d="M599 0l-261 712h-64l-262 -712h81l57 161h311l57 -161h81zM439 227h-266l134 376zM351 781l-88 153h-86l108 -153h66z" />
    <glyph glyph-name="Aacute" unicode="&#xc1;" horiz-adv-x="611" 
d="M599 0l-261 712h-64l-262 -712h81l57 161h311l57 -161h81zM439 227h-266l134 376zM427 934h-86l-88 -153h66z" />
    <glyph glyph-name="Acircumflex" unicode="&#xc2;" horiz-adv-x="611" 
d="M599 0l-261 712h-64l-262 -712h81l57 161h311l57 -161h81zM439 227h-266l134 376zM461 781l-125 153h-68l-125 -153h69l90 104l90 -104h69z" />
    <glyph glyph-name="Atilde" unicode="&#xc3;" horiz-adv-x="611" 
d="M599 0l-261 712h-64l-262 -712h81l57 161h311l57 -161h81zM439 227h-266l134 376zM459 846l-37.0029 35.998c-13.333 -13.333 -24.166 -22 -32.499 -26s-17.166 -6 -26.499 -6c-16 0 -34.667 6.66699 -56 20c-14.667 8.66699 -26.834 14.834 -36.501 18.501
s-21.167 5.5 -34.5 5.5c-14.667 0 -29 -3.33301 -43 -10s-31.333 -20.334 -52 -41.001l37 -36c14 14 25 22.833 33 26.5s16.667 5.5 26 5.5c8.66699 0 16.834 -1.66699 24.501 -5s17.834 -8.66602 30.501 -15.999h1c14 -8 26 -13.833 36 -17.5s21.667 -5.5 35 -5.5
c14 0 28.167 3.33301 42.5 10s31.833 20.334 52.5 41.001z" />
    <glyph glyph-name="Adieresis" unicode="&#xc4;" horiz-adv-x="611" 
d="M599 0l-261 712h-64l-262 -712h81l57 161h311l57 -161h81zM439 227h-266l134 376zM444 789v89h-72v-89h72zM232 789v89h-72v-89h72z" />
    <glyph glyph-name="Aring" unicode="&#xc5;" horiz-adv-x="611" 
d="M599 0l-261 712h-64l-262 -712h81l57 161h311l57 -161h81zM439 227h-266l134 376zM420 867c0 33.333 -11.5 61.333 -34.5 84s-50.833 34 -83.5 34s-60.5 -11.5 -83.5 -34.5s-34.5 -50.833 -34.5 -83.5s11.5 -60.667 34.5 -84s50.833 -35 83.5 -35s60.5 11.667 83.5 35
s34.5 51.333 34.5 84zM371 867c0 -19.333 -6.66895 -35.666 -20.002 -48.999s-29.666 -20 -48.999 -20s-35.666 6.66699 -48.999 20s-20 29.666 -20 48.999s6.83301 35.5 20.5 48.5s29.834 19.5 48.501 19.5c19.333 0 35.666 -6.5 48.999 -19.5s20 -29.167 20 -48.5z" />
    <glyph glyph-name="AE" unicode="&#xc6;" horiz-adv-x="922" 
d="M867 0v68h-366v255h312v68h-312v253h366v68h-483l-376 -712h83l88 169h247v-169h441zM426 235h-214l214 409v-409z" />
    <glyph glyph-name="Ccedilla" unicode="&#xc7;" horiz-adv-x="637" 
d="M572 206l-76.001 0.00488281c-9.33301 -44 -29.166 -79 -59.499 -105s-67.5 -39 -111.5 -39c-23.333 0 -45.833 4.33301 -67.5 13s-40.167 21 -55.5 37c-11.333 12 -20.333 24.333 -27 37s-11.667 27.834 -15 45.501s-5.5 38.667 -6.5 63s-1.5 57.166 -1.5 98.499
s0.5 74.333 1.5 99s3.16699 45.667 6.5 63s8.33301 32.5 15 45.5s15.667 25.167 27 36.5c15.333 16 33.833 28.333 55.5 37s44.167 13 67.5 13c44 0 80.833 -12.833 110.5 -38.5s49.167 -60.834 58.5 -105.501h78c-12 66.667 -40 118.667 -84 156s-98.333 56 -163 56
c-34.667 0 -67.667 -6.33301 -99 -19s-59 -31 -83 -55c-16.667 -16.667 -29.5 -33.834 -38.5 -51.501s-15.5 -37.334 -19.5 -59.001s-6.5 -45 -7.5 -70s-1.5 -60.833 -1.5 -107.5s0.5 -82.334 1.5 -107.001s3.5 -48 7.5 -70s10.5 -41.833 19.5 -59.5
s21.833 -34.834 38.5 -51.501c24 -24 51.667 -42.333 83 -55s64.333 -19 99 -19c64 0 118.333 18.833 163 56.5s72.667 89.5 84 155.5zM369.999 -66.9951h-67l-71 -149h79z" />
    <glyph glyph-name="Egrave" unicode="&#xc8;" horiz-adv-x="600" 
d="M545 0v68h-366v257h312v68h-312v251h366v68h-442v-712h442zM362 781l-88 153h-86l108 -153h66z" />
    <glyph glyph-name="Eacute" unicode="&#xc9;" horiz-adv-x="600" 
d="M545 0v68h-366v257h312v68h-312v251h366v68h-442v-712h442zM438 934h-86l-88 -153h66z" />
    <glyph glyph-name="Ecircumflex" unicode="&#xca;" horiz-adv-x="600" 
d="M545 0v68h-366v257h312v68h-312v251h366v68h-442v-712h442zM472 781l-125 153h-68l-125 -153h69l90 104l90 -104h69z" />
    <glyph glyph-name="Edieresis" unicode="&#xcb;" horiz-adv-x="600" 
d="M545 0v68h-366v257h312v68h-312v251h366v68h-442v-712h442zM455 789v89h-72v-89h72zM243 789v89h-72v-89h72z" />
    <glyph glyph-name="Igrave" unicode="&#xcc;" horiz-adv-x="282" 
d="M114 781l-108 153h86l88 -153h-66zM103 0v712h76v-712h-76z" />
    <glyph glyph-name="Iacute" unicode="&#xcd;" horiz-adv-x="282" 
d="M169 781h-66l88 153h86zM103 0v712h76v-712h-76z" />
    <glyph glyph-name="Icircumflex" unicode="&#xce;" horiz-adv-x="282" 
d="M179 0v712h-76v-712h76zM298 781l-125 153h-68l-125 -153h69l90 104l90 -104h69z" />
    <glyph glyph-name="Idieresis" unicode="&#xcf;" horiz-adv-x="282" 
d="M1 789v89h72v-89h-72zM213 789v89h72v-89h-72zM103 0v712h76v-712h-76z" />
    <glyph glyph-name="Eth" unicode="&#xd0;" horiz-adv-x="687" 
d="M611 356c0 42.667 -0.333984 75.833 -1.00098 99.5s-2.5 43.667 -5.5 60s-7.33301 31.166 -13 44.499s-13.834 28.333 -24.501 45c-46.667 71.333 -115 107 -205 107h-245v-323h-78v-59h78v-330h239c46.667 0 87.834 9.5 123.501 28.5s64.834 44.5 87.501 76.5
c10 14 17.833 27.333 23.5 40s10 27.5 13 44.5s5 38.333 6 64s1.5 59.834 1.5 102.501zM534.999 351.999c0 -36.667 -0.333984 -65.833 -1.00098 -87.5s-1.83398 -39.5 -3.50098 -53.5s-4.66699 -26.333 -9 -37s-10.166 -21.667 -17.499 -33
c-33.333 -49.333 -85.333 -74 -156 -74h-154v263h161v59h-161v256h154c34 0 63 -5.66699 87 -17s45.333 -29.666 64 -54.999c8.66699 -12 15.334 -23.833 20.001 -35.5s8.16699 -25.334 10.5 -41.001s3.83301 -34 4.5 -55s1 -50.833 1 -89.5z" />
    <glyph glyph-name="Ntilde" unicode="&#xd1;" horiz-adv-x="732" 
d="M629 0v712h-76v-569l-152 229l-226 340h-72v-712h76v571l148 -224l230 -347h72zM523 846l-37.0029 35.998c-13.333 -13.333 -24.166 -22 -32.499 -26s-17.166 -6 -26.499 -6c-16 0 -34.667 6.66699 -56 20c-14.667 8.66699 -26.834 14.834 -36.501 18.501
s-21.167 5.5 -34.5 5.5c-14.667 0 -29 -3.33301 -43 -10s-31.333 -20.334 -52 -41.001l37 -36c14 14 25 22.833 33 26.5s16.667 5.5 26 5.5c8.66699 0 16.834 -1.66699 24.501 -5s17.834 -8.66602 30.501 -15.999h1c14 -8 26 -13.833 36 -17.5s21.667 -5.5 35 -5.5
c14 0 28.167 3.33301 42.5 10s31.833 20.334 52.5 41.001z" />
    <glyph glyph-name="Ograve" unicode="&#xd2;" horiz-adv-x="650" 
d="M574 356c0 46.667 -0.5 82.334 -1.5 107.001s-3.5 48 -7.5 70s-10.5 41.833 -19.5 59.5s-21.833 34.834 -38.5 51.501c-49.333 49.333 -110 74 -182 74s-132.667 -24.667 -182 -74c-16.667 -16.667 -29.5 -33.834 -38.5 -51.501s-15.5 -37.334 -19.5 -59.001
s-6.5 -45 -7.5 -70s-1.5 -60.833 -1.5 -107.5s0.5 -82.334 1.5 -107.001s3.5 -48 7.5 -70s10.5 -41.833 19.5 -59.5s21.833 -34.834 38.5 -51.501c49.333 -49.333 110 -74 182 -74s132.667 24.667 182 74c16.667 16.667 29.5 34 38.5 52s15.5 37.833 19.5 59.5
s6.5 44.834 7.5 69.501s1.5 60.334 1.5 107.001zM498 356c0 -40.667 -0.5 -73.5029 -1.5 -98.5029s-3.16699 -46 -6.5 -63s-8.33301 -32 -15 -45s-15.667 -25.167 -27 -36.5c-15.333 -16 -33.833 -28.5 -55.5 -37.5s-44.167 -13.5 -67.5 -13.5s-45.666 4.5 -66.999 13.5
s-40 21.5 -56 37.5c-11.333 12 -20.333 24.333 -27 37s-11.667 27.667 -15 45s-5.5 38.333 -6.5 63s-1.5 57.334 -1.5 98.001c0 41.333 0.5 74.333 1.5 99s3.16699 45.5 6.5 62.5s8.33301 32 15 45s15.667 25.167 27 36.5c16 16 34.667 28.5 56 37.5
s43.666 13.5 66.999 13.5s45.833 -4.5 67.5 -13.5s40.167 -21.5 55.5 -37.5c11.333 -12 20.333 -24.333 27 -37s11.667 -27.667 15 -45s5.5 -38.166 6.5 -62.499s1.5 -57.166 1.5 -98.499zM374 780.997l-88 153h-86l108 -153h66z" />
    <glyph glyph-name="Oacute" unicode="&#xd3;" horiz-adv-x="650" 
d="M574 356c0 46.667 -0.5 82.334 -1.5 107.001s-3.5 48 -7.5 70s-10.5 41.833 -19.5 59.5s-21.833 34.834 -38.5 51.501c-49.333 49.333 -110 74 -182 74s-132.667 -24.667 -182 -74c-16.667 -16.667 -29.5 -33.834 -38.5 -51.501s-15.5 -37.334 -19.5 -59.001
s-6.5 -45 -7.5 -70s-1.5 -60.833 -1.5 -107.5s0.5 -82.334 1.5 -107.001s3.5 -48 7.5 -70s10.5 -41.833 19.5 -59.5s21.833 -34.834 38.5 -51.501c49.333 -49.333 110 -74 182 -74s132.667 24.667 182 74c16.667 16.667 29.5 34 38.5 52s15.5 37.833 19.5 59.5
s6.5 44.834 7.5 69.501s1.5 60.334 1.5 107.001zM498 356c0 -40.667 -0.5 -73.5029 -1.5 -98.5029s-3.16699 -46 -6.5 -63s-8.33301 -32 -15 -45s-15.667 -25.167 -27 -36.5c-15.333 -16 -33.833 -28.5 -55.5 -37.5s-44.167 -13.5 -67.5 -13.5s-45.666 4.5 -66.999 13.5
s-40 21.5 -56 37.5c-11.333 12 -20.333 24.333 -27 37s-11.667 27.667 -15 45s-5.5 38.333 -6.5 63s-1.5 57.334 -1.5 98.001c0 41.333 0.5 74.333 1.5 99s3.16699 45.5 6.5 62.5s8.33301 32 15 45s15.667 25.167 27 36.5c16 16 34.667 28.5 56 37.5
s43.666 13.5 66.999 13.5s45.833 -4.5 67.5 -13.5s40.167 -21.5 55.5 -37.5c11.333 -12 20.333 -24.333 27 -37s11.667 -27.667 15 -45s5.5 -38.166 6.5 -62.499s1.5 -57.166 1.5 -98.499zM450 933.997h-86l-88 -153h66z" />
    <glyph glyph-name="Ocircumflex" unicode="&#xd4;" horiz-adv-x="650" 
d="M574 356c0 46.667 -0.5 82.334 -1.5 107.001s-3.5 48 -7.5 70s-10.5 41.833 -19.5 59.5s-21.833 34.834 -38.5 51.501c-49.333 49.333 -110 74 -182 74s-132.667 -24.667 -182 -74c-16.667 -16.667 -29.5 -33.834 -38.5 -51.501s-15.5 -37.334 -19.5 -59.001
s-6.5 -45 -7.5 -70s-1.5 -60.833 -1.5 -107.5s0.5 -82.334 1.5 -107.001s3.5 -48 7.5 -70s10.5 -41.833 19.5 -59.5s21.833 -34.834 38.5 -51.501c49.333 -49.333 110 -74 182 -74s132.667 24.667 182 74c16.667 16.667 29.5 34 38.5 52s15.5 37.833 19.5 59.5
s6.5 44.834 7.5 69.501s1.5 60.334 1.5 107.001zM498 356c0 -40.667 -0.5 -73.5029 -1.5 -98.5029s-3.16699 -46 -6.5 -63s-8.33301 -32 -15 -45s-15.667 -25.167 -27 -36.5c-15.333 -16 -33.833 -28.5 -55.5 -37.5s-44.167 -13.5 -67.5 -13.5s-45.666 4.5 -66.999 13.5
s-40 21.5 -56 37.5c-11.333 12 -20.333 24.333 -27 37s-11.667 27.667 -15 45s-5.5 38.333 -6.5 63s-1.5 57.334 -1.5 98.001c0 41.333 0.5 74.333 1.5 99s3.16699 45.5 6.5 62.5s8.33301 32 15 45s15.667 25.167 27 36.5c16 16 34.667 28.5 56 37.5
s43.666 13.5 66.999 13.5s45.833 -4.5 67.5 -13.5s40.167 -21.5 55.5 -37.5c11.333 -12 20.333 -24.333 27 -37s11.667 -27.667 15 -45s5.5 -38.166 6.5 -62.499s1.5 -57.166 1.5 -98.499zM484 780.997l-125 153h-68l-125 -153h69l90 104l90 -104h69z" />
    <glyph glyph-name="Otilde" unicode="&#xd5;" horiz-adv-x="650" 
d="M574 356c0 46.667 -0.5 82.334 -1.5 107.001s-3.5 48 -7.5 70s-10.5 41.833 -19.5 59.5s-21.833 34.834 -38.5 51.501c-49.333 49.333 -110 74 -182 74s-132.667 -24.667 -182 -74c-16.667 -16.667 -29.5 -33.834 -38.5 -51.501s-15.5 -37.334 -19.5 -59.001
s-6.5 -45 -7.5 -70s-1.5 -60.833 -1.5 -107.5s0.5 -82.334 1.5 -107.001s3.5 -48 7.5 -70s10.5 -41.833 19.5 -59.5s21.833 -34.834 38.5 -51.501c49.333 -49.333 110 -74 182 -74s132.667 24.667 182 74c16.667 16.667 29.5 34 38.5 52s15.5 37.833 19.5 59.5
s6.5 44.834 7.5 69.501s1.5 60.334 1.5 107.001zM498 356c0 -40.667 -0.5 -73.5029 -1.5 -98.5029s-3.16699 -46 -6.5 -63s-8.33301 -32 -15 -45s-15.667 -25.167 -27 -36.5c-15.333 -16 -33.833 -28.5 -55.5 -37.5s-44.167 -13.5 -67.5 -13.5s-45.666 4.5 -66.999 13.5
s-40 21.5 -56 37.5c-11.333 12 -20.333 24.333 -27 37s-11.667 27.667 -15 45s-5.5 38.333 -6.5 63s-1.5 57.334 -1.5 98.001c0 41.333 0.5 74.333 1.5 99s3.16699 45.5 6.5 62.5s8.33301 32 15 45s15.667 25.167 27 36.5c16 16 34.667 28.5 56 37.5
s43.666 13.5 66.999 13.5s45.833 -4.5 67.5 -13.5s40.167 -21.5 55.5 -37.5c11.333 -12 20.333 -24.333 27 -37s11.667 -27.667 15 -45s5.5 -38.166 6.5 -62.499s1.5 -57.166 1.5 -98.499zM482 845.997l-37.0029 35.998c-13.333 -13.333 -24.166 -22 -32.499 -26
s-17.166 -6 -26.499 -6c-16 0 -34.667 6.66699 -56 20c-14.667 8.66699 -26.834 14.834 -36.501 18.501s-21.167 5.5 -34.5 5.5c-14.667 0 -29 -3.33301 -43 -10s-31.333 -20.334 -52 -41.001l37 -36c14 14 25 22.833 33 26.5s16.667 5.5 26 5.5
c8.66699 0 16.834 -1.66699 24.501 -5s17.834 -8.66602 30.501 -15.999h1c14 -8 26 -13.833 36 -17.5s21.667 -5.5 35 -5.5c14 0 28.167 3.33301 42.5 10s31.833 20.334 52.5 41.001z" />
    <glyph glyph-name="Odieresis" unicode="&#xd6;" horiz-adv-x="650" 
d="M574 356c0 46.667 -0.5 82.334 -1.5 107.001s-3.5 48 -7.5 70s-10.5 41.833 -19.5 59.5s-21.833 34.834 -38.5 51.501c-49.333 49.333 -110 74 -182 74s-132.667 -24.667 -182 -74c-16.667 -16.667 -29.5 -33.834 -38.5 -51.501s-15.5 -37.334 -19.5 -59.001
s-6.5 -45 -7.5 -70s-1.5 -60.833 -1.5 -107.5s0.5 -82.334 1.5 -107.001s3.5 -48 7.5 -70s10.5 -41.833 19.5 -59.5s21.833 -34.834 38.5 -51.501c49.333 -49.333 110 -74 182 -74s132.667 24.667 182 74c16.667 16.667 29.5 34 38.5 52s15.5 37.833 19.5 59.5
s6.5 44.834 7.5 69.501s1.5 60.334 1.5 107.001zM498 356c0 -40.667 -0.5 -73.5029 -1.5 -98.5029s-3.16699 -46 -6.5 -63s-8.33301 -32 -15 -45s-15.667 -25.167 -27 -36.5c-15.333 -16 -33.833 -28.5 -55.5 -37.5s-44.167 -13.5 -67.5 -13.5s-45.666 4.5 -66.999 13.5
s-40 21.5 -56 37.5c-11.333 12 -20.333 24.333 -27 37s-11.667 27.667 -15 45s-5.5 38.333 -6.5 63s-1.5 57.334 -1.5 98.001c0 41.333 0.5 74.333 1.5 99s3.16699 45.5 6.5 62.5s8.33301 32 15 45s15.667 25.167 27 36.5c16 16 34.667 28.5 56 37.5
s43.666 13.5 66.999 13.5s45.833 -4.5 67.5 -13.5s40.167 -21.5 55.5 -37.5c11.333 -12 20.333 -24.333 27 -37s11.667 -27.667 15 -45s5.5 -38.166 6.5 -62.499s1.5 -57.166 1.5 -98.499zM467 788.997v89h-72v-89h72zM255 788.997v89h-72v-89h72z" />
    <glyph glyph-name="multiply" unicode="&#xd7;" 
d="M457 119l-152 151l152 151l-45 45l-151 -152l-151 152l-45 -45l151 -151l-151 -151l45 -45l151 151l151 -151z" />
    <glyph glyph-name="Oslash" unicode="&#xd8;" horiz-adv-x="652" 
d="M574 356c0 46.667 -0.499023 82.333 -1.49902 107s-3.5 48 -7.5 70s-10.5 41.833 -19.5 59.5s-21.833 34.834 -38.5 51.501l-3 3c-2 2.66699 -3.66699 4.33398 -5 5.00098l50 104h-65l-34 -69c-36.667 20.667 -78.334 31 -125.001 31c-72 0 -132.667 -24.667 -182 -74
c-16.667 -16.667 -29.5 -33.834 -38.5 -51.501s-15.5 -37.334 -19.5 -59.001s-6.5 -45 -7.5 -70s-1.5 -60.833 -1.5 -107.5s0.5 -82.334 1.5 -107.001s3.5 -48 7.5 -70s10.5 -41.833 19.5 -59.5s21.833 -34.834 38.5 -51.501l8 -8l-50 -104h65l33 70
c37.333 -21.333 79.333 -32 126 -32c72 0 132.667 24.667 182 74c16.667 16.667 29.5 34 38.5 52s15.5 37.833 19.5 59.5s6.5 44.834 7.5 69.501s1.5 60.334 1.5 107.001zM497.001 355.999c0 -42 -0.5 -75 -1.5 -99s-3 -44.667 -6 -62s-7.83301 -32.333 -14.5 -45
s-15.667 -25 -27 -37c-15.333 -16 -33.833 -28.5 -55.5 -37.5s-44.167 -13.5 -67.5 -13.5c-34 0 -66 9.66699 -96 29l234 490c14.667 -20 24 -45 28 -75s6 -80 6 -150zM421.001 620.999l-233.999 -489.999c-14.667 20 -24.167 45.167 -28.5 75.5s-6.5 80.166 -6.5 149.499
c0 41.333 0.5 74.333 1.5 99s3.16699 45.5 6.5 62.5s8.33301 32 15 45s15.667 25.167 27 36.5c16 16 34.667 28.5 56 37.5s43.666 13.5 66.999 13.5c34 0 66 -9.66699 96 -29z" />
    <glyph glyph-name="Ugrave" unicode="&#xd9;" horiz-adv-x="682" 
d="M590 235l0.000976562 477.003h-76v-471c0 -54 -15.833 -97.333 -47.5 -130s-73.5 -49 -125.5 -49s-93.667 16.333 -125 49s-47 76 -47 130v471h-76v-477c0 -34.667 6 -66.834 18 -96.501s29.167 -55.334 51.5 -77.001s48.833 -38.334 79.5 -50.001s63.667 -17.5 99 -17.5
s68.333 5.83301 99 17.5s57.167 28.334 79.5 50.001s39.666 47.167 51.999 76.5s18.5 61.666 18.5 96.999zM390.001 781.003l-88 153h-86l108 -153h66z" />
    <glyph glyph-name="Uacute" unicode="&#xda;" horiz-adv-x="682" 
d="M590 235l0.000976562 477.003h-76v-471c0 -54 -15.833 -97.333 -47.5 -130s-73.5 -49 -125.5 -49s-93.667 16.333 -125 49s-47 76 -47 130v471h-76v-477c0 -34.667 6 -66.834 18 -96.501s29.167 -55.334 51.5 -77.001s48.833 -38.334 79.5 -50.001s63.667 -17.5 99 -17.5
s68.333 5.83301 99 17.5s57.167 28.334 79.5 50.001s39.666 47.167 51.999 76.5s18.5 61.666 18.5 96.999zM466.001 934.003h-86l-88 -153h66z" />
    <glyph glyph-name="Ucircumflex" unicode="&#xdb;" horiz-adv-x="682" 
d="M590 235l0.000976562 477.003h-76v-471c0 -54 -15.833 -97.333 -47.5 -130s-73.5 -49 -125.5 -49s-93.667 16.333 -125 49s-47 76 -47 130v471h-76v-477c0 -34.667 6 -66.834 18 -96.501s29.167 -55.334 51.5 -77.001s48.833 -38.334 79.5 -50.001s63.667 -17.5 99 -17.5
s68.333 5.83301 99 17.5s57.167 28.334 79.5 50.001s39.666 47.167 51.999 76.5s18.5 61.666 18.5 96.999zM500.001 781.003l-125 153h-68l-125 -153h69l90 104l90 -104h69z" />
    <glyph glyph-name="Udieresis" unicode="&#xdc;" horiz-adv-x="682" 
d="M590 235l0.000976562 477.003h-76v-471c0 -54 -15.833 -97.333 -47.5 -130s-73.5 -49 -125.5 -49s-93.667 16.333 -125 49s-47 76 -47 130v471h-76v-477c0 -34.667 6 -66.834 18 -96.501s29.167 -55.334 51.5 -77.001s48.833 -38.334 79.5 -50.001s63.667 -17.5 99 -17.5
s68.333 5.83301 99 17.5s57.167 28.334 79.5 50.001s39.666 47.167 51.999 76.5s18.5 61.666 18.5 96.999zM483.001 789.003v89h-72v-89h72zM271.001 789.003v89h-72v-89h72z" />
    <glyph glyph-name="Yacute" unicode="&#xdd;" horiz-adv-x="515" 
d="M506 712h-82l-166 -341l-168 341h-82l212 -418v-294h76v294zM382 934h-86l-88 -153h66z" />
    <glyph glyph-name="Thorn" unicode="&#xde;" horiz-adv-x="642" 
d="M588 359c0 63.333 -20.333 114.167 -61 152.5s-93.667 57.5 -159 57.5h-189v143h-76v-712h76v150h189c65.333 0 118.333 19 159 57s61 88.667 61 152zM512 359.001c0 -46 -13.667 -81 -41 -105s-64 -36 -110 -36h-182v282h182c46 0 82.667 -12 110 -36s41 -59 41 -105z
" />
    <glyph glyph-name="germandbls" unicode="&#xdf;" horiz-adv-x="556" 
d="M484 141l0.000976562 172.997c0 32 -4.5 56.833 -13.5 74.5s-25.5 32.834 -49.5 45.501c42 27.333 63 67 63 119c0 54.667 -18 96 -54 124s-82.333 42 -139 42c-62 0 -111 -17 -147 -51s-54 -82 -54 -144v-524h73v521c0 42 10 75 30 99s51.333 36 94 36
s74 -9.66699 94 -29c9.33301 -8.66699 16.833 -19.667 22.5 -33s8.5 -27.333 8.5 -42c0 -28 -8.16699 -50.167 -24.5 -66.5s-37.5 -24.5 -63.5 -24.5h-36v-60h44c25.333 0 45 -7 59 -21s21 -34.667 21 -62v-169c0 -31.333 -8.33301 -53.666 -25 -66.999
c-8.66699 -7.33301 -17.167 -12.5 -25.5 -15.5s-19.5 -4.5 -33.5 -4.5h-40v-62h54c22.667 0 42.167 2.83301 58.5 8.5s31.166 14.834 44.499 27.501c26 24 39 59 39 105z" />
    <glyph glyph-name="agrave" unicode="&#xe0;" horiz-adv-x="526" 
d="M441 0v334.001c0 109.333 -65.667 164 -197 164c-41.333 0 -75.333 -5.33301 -102 -16s-50.667 -29.667 -72 -57l49 -45c14.667 20.667 31.167 35.167 49.5 43.5s43.166 12.5 74.499 12.5c44.667 0 76.834 -8.83301 96.501 -26.5s29.5 -44.834 29.5 -81.501v-47h-148
c-54 0 -95.833 -12.667 -125.5 -38s-44.5 -60 -44.5 -104c0 -20 3.16699 -38.667 9.5 -56s15.5 -32 27.5 -44c15.333 -16 33.833 -27.5 55.5 -34.5s49.5 -10.5 83.5 -10.5c33.333 0 60.333 3.83301 81 11.5s41 21.5 61 41.5v-47h72zM369 174.001
c0 -40.667 -8.33301 -69.001 -25 -85.001c-14 -13.333 -29.5 -22.166 -46.5 -26.499s-38.167 -6.5 -63.5 -6.5c-75.333 0 -113 28 -113 84c0 58 36.667 87 110 87h138v-53zM301 594l-88 153h-86l108 -153h66z" />
    <glyph glyph-name="aacute" unicode="&#xe1;" horiz-adv-x="526" 
d="M441 0v334.001c0 109.333 -65.667 164 -197 164c-41.333 0 -75.333 -5.33301 -102 -16s-50.667 -29.667 -72 -57l49 -45c14.667 20.667 31.167 35.167 49.5 43.5s43.166 12.5 74.499 12.5c44.667 0 76.834 -8.83301 96.501 -26.5s29.5 -44.834 29.5 -81.501v-47h-148
c-54 0 -95.833 -12.667 -125.5 -38s-44.5 -60 -44.5 -104c0 -20 3.16699 -38.667 9.5 -56s15.5 -32 27.5 -44c15.333 -16 33.833 -27.5 55.5 -34.5s49.5 -10.5 83.5 -10.5c33.333 0 60.333 3.83301 81 11.5s41 21.5 61 41.5v-47h72zM369 174.001
c0 -40.667 -8.33301 -69.001 -25 -85.001c-14 -13.333 -29.5 -22.166 -46.5 -26.499s-38.167 -6.5 -63.5 -6.5c-75.333 0 -113 28 -113 84c0 58 36.667 87 110 87h138v-53zM377 747h-86l-88 -153h66z" />
    <glyph glyph-name="acircumflex" unicode="&#xe2;" horiz-adv-x="526" 
d="M441 0v334.001c0 109.333 -65.667 164 -197 164c-41.333 0 -75.333 -5.33301 -102 -16s-50.667 -29.667 -72 -57l49 -45c14.667 20.667 31.167 35.167 49.5 43.5s43.166 12.5 74.499 12.5c44.667 0 76.834 -8.83301 96.501 -26.5s29.5 -44.834 29.5 -81.501v-47h-148
c-54 0 -95.833 -12.667 -125.5 -38s-44.5 -60 -44.5 -104c0 -20 3.16699 -38.667 9.5 -56s15.5 -32 27.5 -44c15.333 -16 33.833 -27.5 55.5 -34.5s49.5 -10.5 83.5 -10.5c33.333 0 60.333 3.83301 81 11.5s41 21.5 61 41.5v-47h72zM369 174.001
c0 -40.667 -8.33301 -69.001 -25 -85.001c-14 -13.333 -29.5 -22.166 -46.5 -26.499s-38.167 -6.5 -63.5 -6.5c-75.333 0 -113 28 -113 84c0 58 36.667 87 110 87h138v-53zM411 594l-125 153h-68l-125 -153h69l90 104l90 -104h69z" />
    <glyph glyph-name="atilde" unicode="&#xe3;" horiz-adv-x="526" 
d="M441 0v334.001c0 109.333 -65.667 164 -197 164c-41.333 0 -75.333 -5.33301 -102 -16s-50.667 -29.667 -72 -57l49 -45c14.667 20.667 31.167 35.167 49.5 43.5s43.166 12.5 74.499 12.5c44.667 0 76.834 -8.83301 96.501 -26.5s29.5 -44.834 29.5 -81.501v-47h-148
c-54 0 -95.833 -12.667 -125.5 -38s-44.5 -60 -44.5 -104c0 -20 3.16699 -38.667 9.5 -56s15.5 -32 27.5 -44c15.333 -16 33.833 -27.5 55.5 -34.5s49.5 -10.5 83.5 -10.5c33.333 0 60.333 3.83301 81 11.5s41 21.5 61 41.5v-47h72zM369 174.001
c0 -40.667 -8.33301 -69.001 -25 -85.001c-14 -13.333 -29.5 -22.166 -46.5 -26.499s-38.167 -6.5 -63.5 -6.5c-75.333 0 -113 28 -113 84c0 58 36.667 87 110 87h138v-53zM409 659l-37.0029 35.998c-13.333 -13.333 -24.166 -22 -32.499 -26s-17.166 -6 -26.499 -6
c-16 0 -34.667 6.66699 -56 20c-14.667 8.66699 -26.834 14.834 -36.501 18.501s-21.167 5.5 -34.5 5.5c-14.667 0 -29 -3.33301 -43 -10s-31.333 -20.334 -52 -41.001l37 -36c14 14 25 22.833 33 26.5s16.667 5.5 26 5.5c8.66699 0 16.834 -1.66699 24.501 -5
s17.834 -8.66602 30.501 -15.999h1c14 -8 26 -13.833 36 -17.5s21.667 -5.5 35 -5.5c14 0 28.167 3.33301 42.5 10s31.833 20.334 52.5 41.001z" />
    <glyph glyph-name="adieresis" unicode="&#xe4;" horiz-adv-x="526" 
d="M441 0v334.001c0 109.333 -65.667 164 -197 164c-41.333 0 -75.333 -5.33301 -102 -16s-50.667 -29.667 -72 -57l49 -45c14.667 20.667 31.167 35.167 49.5 43.5s43.166 12.5 74.499 12.5c44.667 0 76.834 -8.83301 96.501 -26.5s29.5 -44.834 29.5 -81.501v-47h-148
c-54 0 -95.833 -12.667 -125.5 -38s-44.5 -60 -44.5 -104c0 -20 3.16699 -38.667 9.5 -56s15.5 -32 27.5 -44c15.333 -16 33.833 -27.5 55.5 -34.5s49.5 -10.5 83.5 -10.5c33.333 0 60.333 3.83301 81 11.5s41 21.5 61 41.5v-47h72zM369 174.001
c0 -40.667 -8.33301 -69.001 -25 -85.001c-14 -13.333 -29.5 -22.166 -46.5 -26.499s-38.167 -6.5 -63.5 -6.5c-75.333 0 -113 28 -113 84c0 58 36.667 87 110 87h138v-53zM394 602v89h-72v-89h72zM182 602v89h-72v-89h72z" />
    <glyph glyph-name="aring" unicode="&#xe5;" horiz-adv-x="526" 
d="M441 0v334.001c0 109.333 -65.667 164 -197 164c-41.333 0 -75.333 -5.33301 -102 -16s-50.667 -29.667 -72 -57l49 -45c14.667 20.667 31.167 35.167 49.5 43.5s43.166 12.5 74.499 12.5c44.667 0 76.834 -8.83301 96.501 -26.5s29.5 -44.834 29.5 -81.501v-47h-148
c-54 0 -95.833 -12.667 -125.5 -38s-44.5 -60 -44.5 -104c0 -20 3.16699 -38.667 9.5 -56s15.5 -32 27.5 -44c15.333 -16 33.833 -27.5 55.5 -34.5s49.5 -10.5 83.5 -10.5c33.333 0 60.333 3.83301 81 11.5s41 21.5 61 41.5v-47h72zM369 174.001
c0 -40.667 -8.33301 -69.001 -25 -85.001c-14 -13.333 -29.5 -22.166 -46.5 -26.499s-38.167 -6.5 -63.5 -6.5c-75.333 0 -113 28 -113 84c0 58 36.667 87 110 87h138v-53zM370 687c0 33.333 -11.5 61.333 -34.5 84s-50.833 34 -83.5 34s-60.5 -11.5 -83.5 -34.5
s-34.5 -50.833 -34.5 -83.5s11.5 -60.667 34.5 -84s50.833 -35 83.5 -35s60.5 11.667 83.5 35s34.5 51.333 34.5 84zM321 687c0 -19.333 -6.66895 -35.666 -20.002 -48.999s-29.666 -20 -48.999 -20s-35.666 6.66699 -48.999 20s-20 29.666 -20 48.999
s6.83301 35.5 20.5 48.5s29.834 19.5 48.501 19.5c19.333 0 35.666 -6.5 48.999 -19.5s20 -29.167 20 -48.5z" />
    <glyph glyph-name="ae" unicode="&#xe6;" horiz-adv-x="835" 
d="M773 227l0.000976562 33.001c0 73.333 -17.833 131.333 -53.5 174s-85.167 64 -148.5 64c-68 0 -119.333 -25.667 -154 -77c-27.333 51.333 -85 77 -173 77c-41.333 0 -75.333 -5.33301 -102 -16s-50.667 -29.667 -72 -57l49 -45c14.667 20.667 31.167 35.167 49.5 43.5
s43.166 12.5 74.499 12.5c44.667 0 76.834 -8.83301 96.501 -26.5s29.5 -44.834 29.5 -81.501v-47h-148c-54 0 -95.833 -12.667 -125.5 -38s-44.5 -60 -44.5 -104c0 -20 3.16699 -38.667 9.5 -56s15.5 -32 27.5 -44c15.333 -16 33.833 -27.5 55.5 -34.5
s49.5 -10.5 83.5 -10.5c43.333 0 78.666 6.33301 105.999 19s52 34.667 74 66c17.333 -28.667 41 -50 71 -64s64.667 -21 104 -21c40.667 0 74.5 6 101.5 18s53.833 31.333 80.5 58l-50 43c-20 -20 -39.5 -34.333 -58.5 -43s-42.167 -13 -69.5 -13
c-46.667 0 -82.667 14.833 -108 44.5s-38 71.5 -38 125.5h333zM701.001 281.001l-261 -0.000976562c1.33301 20 3 35.333 5 46s5.66699 22.667 11 36c9.33301 22.667 24.333 40.667 45 54s44 20 70 20s49.333 -6.66699 70 -20s35.667 -31.333 45 -54
c5.33301 -13.333 8.83301 -25.166 10.5 -35.499s3.16699 -25.833 4.5 -46.5zM369.001 174c0 -40.667 -8.33301 -69.001 -25 -85.001c-14 -13.333 -29.5 -22.166 -46.5 -26.499s-38.167 -6.5 -63.5 -6.5c-75.333 0 -113 28 -113 84c0 58 36.667 87 110 87h138v-53z" />
    <glyph glyph-name="ccedilla" unicode="&#xe7;" horiz-adv-x="494" 
d="M443 67l-49 46.9961c-18.667 -20.667 -36.334 -35.167 -53.001 -43.5s-36.667 -12.5 -60 -12.5c-50 0 -88 18.667 -114 56c-11.333 16 -19.5 34.333 -24.5 55s-7.5 46.334 -7.5 77.001s2.5 56.334 7.5 77.001s13.167 39 24.5 55c26 37.333 64 56 114 56
c23.333 0 43.333 -4 60 -12s34.334 -22.333 53.001 -43l49 46c-25.333 27.333 -50 46.333 -74 57s-53.333 16 -88 16c-64.667 0 -117.167 -21.667 -157.5 -65s-60.5 -105.666 -60.5 -186.999s20.167 -143.666 60.5 -186.999s92.833 -65 157.5 -65c34.667 0 64 5.33301 88 16
s48.667 29.667 74 57zM313 -67.0039h-67l-71 -149h79z" />
    <glyph glyph-name="egrave" unicode="&#xe8;" horiz-adv-x="530" 
d="M467 227v33c0 73.333 -17.833 131.333 -53.5 174s-85.167 64 -148.5 64c-62.667 0 -112 -22.167 -148 -66.5s-54 -106.166 -54 -185.499c0 -84.667 19 -147.834 57 -189.501s90.667 -62.5 158 -62.5c40.667 0 74.167 6 100.5 18s52.833 31.333 79.5 58l-49 43
c-20 -20 -39.5 -34.333 -58.5 -43s-42.5 -13 -70.5 -13c-46.667 0 -82.5 14.833 -107.5 44.5s-37.5 71.5 -37.5 125.5h332zM395 281h-260c1.33301 20.667 2.83301 36.167 4.5 46.5s5.16699 22.166 10.5 35.499c9.33301 22.667 24.333 40.667 45 54s44 20 70 20
s49.333 -6.66699 70 -20s35.667 -31.333 45 -54c5.33301 -13.333 8.83301 -25.166 10.5 -35.499s3.16699 -25.833 4.5 -46.5zM317 594l-88 153h-86l108 -153h66z" />
    <glyph glyph-name="eacute" unicode="&#xe9;" horiz-adv-x="530" 
d="M467 227v33c0 73.333 -17.833 131.333 -53.5 174s-85.167 64 -148.5 64c-62.667 0 -112 -22.167 -148 -66.5s-54 -106.166 -54 -185.499c0 -84.667 19 -147.834 57 -189.501s90.667 -62.5 158 -62.5c40.667 0 74.167 6 100.5 18s52.833 31.333 79.5 58l-49 43
c-20 -20 -39.5 -34.333 -58.5 -43s-42.5 -13 -70.5 -13c-46.667 0 -82.5 14.833 -107.5 44.5s-37.5 71.5 -37.5 125.5h332zM395 281h-260c1.33301 20.667 2.83301 36.167 4.5 46.5s5.16699 22.166 10.5 35.499c9.33301 22.667 24.333 40.667 45 54s44 20 70 20
s49.333 -6.66699 70 -20s35.667 -31.333 45 -54c5.33301 -13.333 8.83301 -25.166 10.5 -35.499s3.16699 -25.833 4.5 -46.5zM393 747h-86l-88 -153h66z" />
    <glyph glyph-name="ecircumflex" unicode="&#xea;" horiz-adv-x="530" 
d="M467 227v33c0 73.333 -17.833 131.333 -53.5 174s-85.167 64 -148.5 64c-62.667 0 -112 -22.167 -148 -66.5s-54 -106.166 -54 -185.499c0 -84.667 19 -147.834 57 -189.501s90.667 -62.5 158 -62.5c40.667 0 74.167 6 100.5 18s52.833 31.333 79.5 58l-49 43
c-20 -20 -39.5 -34.333 -58.5 -43s-42.5 -13 -70.5 -13c-46.667 0 -82.5 14.833 -107.5 44.5s-37.5 71.5 -37.5 125.5h332zM395 281h-260c1.33301 20.667 2.83301 36.167 4.5 46.5s5.16699 22.166 10.5 35.499c9.33301 22.667 24.333 40.667 45 54s44 20 70 20
s49.333 -6.66699 70 -20s35.667 -31.333 45 -54c5.33301 -13.333 8.83301 -25.166 10.5 -35.499s3.16699 -25.833 4.5 -46.5zM427 594l-125 153h-68l-125 -153h69l90 104l90 -104h69z" />
    <glyph glyph-name="edieresis" unicode="&#xeb;" horiz-adv-x="530" 
d="M467 227v33c0 73.333 -17.833 131.333 -53.5 174s-85.167 64 -148.5 64c-62.667 0 -112 -22.167 -148 -66.5s-54 -106.166 -54 -185.499c0 -84.667 19 -147.834 57 -189.501s90.667 -62.5 158 -62.5c40.667 0 74.167 6 100.5 18s52.833 31.333 79.5 58l-49 43
c-20 -20 -39.5 -34.333 -58.5 -43s-42.5 -13 -70.5 -13c-46.667 0 -82.5 14.833 -107.5 44.5s-37.5 71.5 -37.5 125.5h332zM395 281h-260c1.33301 20.667 2.83301 36.167 4.5 46.5s5.16699 22.166 10.5 35.499c9.33301 22.667 24.333 40.667 45 54s44 20 70 20
s49.333 -6.66699 70 -20s35.667 -31.333 45 -54c5.33301 -13.333 8.83301 -25.166 10.5 -35.499s3.16699 -25.833 4.5 -46.5zM410 602v89h-72v-89h72zM198 602v89h-72v-89h72z" />
    <glyph glyph-name="igrave" unicode="&#xec;" horiz-adv-x="253" 
d="M103 594l-108 153h86l88 -153h-66zM90 0v492h72v-492h-72z" />
    <glyph glyph-name="iacute" unicode="&#xed;" horiz-adv-x="253" 
d="M156 594h-66l88 153h86zM90 0v492h72v-492h-72z" />
    <glyph glyph-name="icircumflex" unicode="&#xee;" horiz-adv-x="253" 
d="M219 594l-90 104l-90 -104h-69l125 153h68l125 -153h-69zM90 0v492h72v-492h-72z" />
    <glyph glyph-name="idieresis" unicode="&#xef;" horiz-adv-x="253" 
d="M-16 602v89h72v-89h-72zM196 602v89h72v-89h-72zM90 0v492h72v-492h-72z" />
    <glyph glyph-name="eth" unicode="&#xf0;" horiz-adv-x="530" 
d="M465 244c0 23.333 -0.833008 43.665 -2.5 60.998s-4.66699 33.833 -9 49.5s-10.666 32.834 -18.999 51.501s-19.166 39.667 -32.499 63l-63 111h54v52h-82l-47 82h-75l47 -82h-88v-52h116l58 -99c-8.66699 4 -18.667 6.66699 -30 8s-26.333 2 -45 2
c-50.667 -3.33301 -91.334 -20.666 -122.001 -51.999c-22.667 -22.667 -38.167 -50 -46.5 -82s-12.5 -69.667 -12.5 -113s4.16699 -81 12.5 -113s23.833 -59.333 46.5 -82c35.333 -36.667 82 -55 140 -55s104.667 18.333 140 55c23.333 23.333 39.166 50.833 47.499 82.5
s12.5 69.167 12.5 112.5zM393 243.999c0 -34.667 -2.5 -64.334 -7.5 -89.001s-15.5 -45 -31.5 -61c-24 -24 -53.667 -36 -89 -36c-34.667 0 -64 12 -88 36c-16 16 -26.5 36.333 -31.5 61s-7.5 54.334 -7.5 89.001s2.5 64.5 7.5 89.5s15.5 45.5 31.5 61.5
c24 24 53.333 36 88 36c35.333 0 65 -12 89 -36c16 -16 26.5 -36.5 31.5 -61.5s7.5 -54.833 7.5 -89.5z" />
    <glyph glyph-name="ntilde" unicode="&#xf1;" horiz-adv-x="562" 
d="M477 0v314.999c0 58.667 -17 104.334 -51 137.001c-30.667 30.667 -72.667 46 -126 46c-56.667 0 -102.667 -20 -138 -60v54h-72v-492h72v303c0 42 10.833 74.333 32.5 97s51.5 34 89.5 34s67.667 -11.167 89 -33.5s32 -54.833 32 -97.5v-303h72zM442 658.999
l-37.0029 35.998c-13.333 -13.333 -24.166 -22 -32.499 -26s-17.166 -6 -26.499 -6c-16 0 -34.667 6.66699 -56 20c-14.667 8.66699 -26.834 14.834 -36.501 18.501s-21.167 5.5 -34.5 5.5c-14.667 0 -29 -3.33301 -43 -10s-31.333 -20.334 -52 -41.001l37 -36
c14 14 25 22.833 33 26.5s16.667 5.5 26 5.5c8.66699 0 16.834 -1.66699 24.501 -5s17.834 -8.66602 30.501 -15.999h1c14 -8 26 -13.833 36 -17.5s21.667 -5.5 35 -5.5c14 0 28.167 3.33301 42.5 10s31.833 20.334 52.5 41.001z" />
    <glyph glyph-name="ograve" unicode="&#xf2;" horiz-adv-x="530" 
d="M466 246c0 43.333 -4.16699 81 -12.5 113s-24.166 59.667 -47.499 83c-37.333 37.333 -84.333 56 -141 56s-103.667 -18.667 -141 -56c-23.333 -23.333 -39.166 -51 -47.499 -83s-12.5 -69.667 -12.5 -113s4.16699 -81 12.5 -113s24.166 -59.667 47.499 -83
c37.333 -37.333 84.333 -56 141 -56s103.667 18.667 141 56c23.333 23.333 39.166 51 47.499 83s12.5 69.667 12.5 113zM394 246c0 -34.667 -2.5 -64.667 -7.5 -90s-15.5 -46 -31.5 -62c-24 -24 -54 -36 -90 -36c-35.333 0 -65 12 -89 36c-16 16 -26.667 36.667 -32 62
s-8 55.333 -8 90s2.66699 64.667 8 90s16 46 32 62c24 24 53.667 36 89 36c36 0 66 -12 90 -36c16 -16 26.5 -36.667 31.5 -62s7.5 -55.333 7.5 -90zM304 594l-88 153h-86l108 -153h66z" />
    <glyph glyph-name="oacute" unicode="&#xf3;" horiz-adv-x="530" 
d="M466 246c0 43.333 -4.16699 81 -12.5 113s-24.166 59.667 -47.499 83c-37.333 37.333 -84.333 56 -141 56s-103.667 -18.667 -141 -56c-23.333 -23.333 -39.166 -51 -47.499 -83s-12.5 -69.667 -12.5 -113s4.16699 -81 12.5 -113s24.166 -59.667 47.499 -83
c37.333 -37.333 84.333 -56 141 -56s103.667 18.667 141 56c23.333 23.333 39.166 51 47.499 83s12.5 69.667 12.5 113zM394 246c0 -34.667 -2.5 -64.667 -7.5 -90s-15.5 -46 -31.5 -62c-24 -24 -54 -36 -90 -36c-35.333 0 -65 12 -89 36c-16 16 -26.667 36.667 -32 62
s-8 55.333 -8 90s2.66699 64.667 8 90s16 46 32 62c24 24 53.667 36 89 36c36 0 66 -12 90 -36c16 -16 26.5 -36.667 31.5 -62s7.5 -55.333 7.5 -90zM390 747h-86l-88 -153h66z" />
    <glyph glyph-name="ocircumflex" unicode="&#xf4;" horiz-adv-x="530" 
d="M466 246c0 43.333 -4.16699 81 -12.5 113s-24.166 59.667 -47.499 83c-37.333 37.333 -84.333 56 -141 56s-103.667 -18.667 -141 -56c-23.333 -23.333 -39.166 -51 -47.499 -83s-12.5 -69.667 -12.5 -113s4.16699 -81 12.5 -113s24.166 -59.667 47.499 -83
c37.333 -37.333 84.333 -56 141 -56s103.667 18.667 141 56c23.333 23.333 39.166 51 47.499 83s12.5 69.667 12.5 113zM394 246c0 -34.667 -2.5 -64.667 -7.5 -90s-15.5 -46 -31.5 -62c-24 -24 -54 -36 -90 -36c-35.333 0 -65 12 -89 36c-16 16 -26.667 36.667 -32 62
s-8 55.333 -8 90s2.66699 64.667 8 90s16 46 32 62c24 24 53.667 36 89 36c36 0 66 -12 90 -36c16 -16 26.5 -36.667 31.5 -62s7.5 -55.333 7.5 -90zM424 594l-125 153h-68l-125 -153h69l90 104l90 -104h69z" />
    <glyph glyph-name="otilde" unicode="&#xf5;" horiz-adv-x="530" 
d="M466 246c0 43.333 -4.16699 81 -12.5 113s-24.166 59.667 -47.499 83c-37.333 37.333 -84.333 56 -141 56s-103.667 -18.667 -141 -56c-23.333 -23.333 -39.166 -51 -47.499 -83s-12.5 -69.667 -12.5 -113s4.16699 -81 12.5 -113s24.166 -59.667 47.499 -83
c37.333 -37.333 84.333 -56 141 -56s103.667 18.667 141 56c23.333 23.333 39.166 51 47.499 83s12.5 69.667 12.5 113zM394 246c0 -34.667 -2.5 -64.667 -7.5 -90s-15.5 -46 -31.5 -62c-24 -24 -54 -36 -90 -36c-35.333 0 -65 12 -89 36c-16 16 -26.667 36.667 -32 62
s-8 55.333 -8 90s2.66699 64.667 8 90s16 46 32 62c24 24 53.667 36 89 36c36 0 66 -12 90 -36c16 -16 26.5 -36.667 31.5 -62s7.5 -55.333 7.5 -90zM422 659l-37.0029 35.998c-13.333 -13.333 -24.166 -22 -32.499 -26s-17.166 -6 -26.499 -6c-16 0 -34.667 6.66699 -56 20
c-14.667 8.66699 -26.834 14.834 -36.501 18.501s-21.167 5.5 -34.5 5.5c-14.667 0 -29 -3.33301 -43 -10s-31.333 -20.334 -52 -41.001l37 -36c14 14 25 22.833 33 26.5s16.667 5.5 26 5.5c8.66699 0 16.834 -1.66699 24.501 -5s17.834 -8.66602 30.501 -15.999h1
c14 -8 26 -13.833 36 -17.5s21.667 -5.5 35 -5.5c14 0 28.167 3.33301 42.5 10s31.833 20.334 52.5 41.001z" />
    <glyph glyph-name="odieresis" unicode="&#xf6;" horiz-adv-x="530" 
d="M466 246c0 43.333 -4.16699 81 -12.5 113s-24.166 59.667 -47.499 83c-37.333 37.333 -84.333 56 -141 56s-103.667 -18.667 -141 -56c-23.333 -23.333 -39.166 -51 -47.499 -83s-12.5 -69.667 -12.5 -113s4.16699 -81 12.5 -113s24.166 -59.667 47.499 -83
c37.333 -37.333 84.333 -56 141 -56s103.667 18.667 141 56c23.333 23.333 39.166 51 47.499 83s12.5 69.667 12.5 113zM394 246c0 -34.667 -2.5 -64.667 -7.5 -90s-15.5 -46 -31.5 -62c-24 -24 -54 -36 -90 -36c-35.333 0 -65 12 -89 36c-16 16 -26.667 36.667 -32 62
s-8 55.333 -8 90s2.66699 64.667 8 90s16 46 32 62c24 24 53.667 36 89 36c36 0 66 -12 90 -36c16 -16 26.5 -36.667 31.5 -62s7.5 -55.333 7.5 -90zM407 602v89h-72v-89h72zM195 602v89h-72v-89h72z" />
    <glyph glyph-name="divide" unicode="&#xf7;" 
d="M304 404v86h-86v-86h86zM471 236v67h-420v-67h420zM304 49v86h-86v-86h86z" />
    <glyph glyph-name="oslash" unicode="&#xf8;" horiz-adv-x="530" 
d="M466 246c0 42.667 -4.16699 79.834 -12.5 111.501s-23.5 59.167 -45.5 82.5l57 96h-56l-39 -65c-30.667 18 -65.667 27 -105 27c-56.667 0 -103.667 -18.667 -141 -56c-23.333 -23.333 -39.166 -51 -47.499 -83s-12.5 -69.667 -12.5 -113
c0 -42.667 4.16699 -79.834 12.5 -111.501s23.5 -59.167 45.5 -82.5l-57 -96h57l38 65c30.667 -18 65.667 -27 105 -27c56.667 0 103.667 18.667 141 56c23.333 23.333 39.166 51 47.499 83s12.5 69.667 12.5 113zM394 246c0 -34.667 -2.5 -64.667 -7.5 -90
s-15.5 -46 -31.5 -62c-24 -24 -54 -36 -90 -36c-27.333 0 -51.333 7.33301 -72 22l177 299c10 -16 16.5 -35 19.5 -57s4.5 -47.333 4.5 -76zM337 413l-176 -300.002c-10 16.667 -16.667 35.834 -20 57.501s-5 46.834 -5 75.501c0 34.667 2.66699 64.667 8 90s16 46 32 62
c24 24 53.667 36 89 36c28 0 52 -7 72 -21z" />
    <glyph glyph-name="ugrave" unicode="&#xf9;" horiz-adv-x="563" 
d="M472 0l0.000976562 492h-72v-303c0 -42 -11 -74.333 -33 -97s-52 -34 -90 -34s-67.5 11.167 -88.5 33.5s-31.5 54.833 -31.5 97.5v303h-72v-314c0 -59.333 16.667 -105.333 50 -138c30.667 -30.667 73 -46 127 -46c57.333 0 103.666 20.333 138.999 61v-55h71z
M327.001 594l-88 153h-86l108 -153h66z" />
    <glyph glyph-name="uacute" unicode="&#xfa;" horiz-adv-x="563" 
d="M472 0l0.000976562 492h-72v-303c0 -42 -11 -74.333 -33 -97s-52 -34 -90 -34s-67.5 11.167 -88.5 33.5s-31.5 54.833 -31.5 97.5v303h-72v-314c0 -59.333 16.667 -105.333 50 -138c30.667 -30.667 73 -46 127 -46c57.333 0 103.666 20.333 138.999 61v-55h71z
M403.001 747h-86l-88 -153h66z" />
    <glyph glyph-name="ucircumflex" unicode="&#xfb;" horiz-adv-x="563" 
d="M472 0l0.000976562 492h-72v-303c0 -42 -11 -74.333 -33 -97s-52 -34 -90 -34s-67.5 11.167 -88.5 33.5s-31.5 54.833 -31.5 97.5v303h-72v-314c0 -59.333 16.667 -105.333 50 -138c30.667 -30.667 73 -46 127 -46c57.333 0 103.666 20.333 138.999 61v-55h71z
M437.001 594l-125 153h-68l-125 -153h69l90 104l90 -104h69z" />
    <glyph glyph-name="udieresis" unicode="&#xfc;" horiz-adv-x="563" 
d="M472 0l0.000976562 492h-72v-303c0 -42 -11 -74.333 -33 -97s-52 -34 -90 -34s-67.5 11.167 -88.5 33.5s-31.5 54.833 -31.5 97.5v303h-72v-314c0 -59.333 16.667 -105.333 50 -138c30.667 -30.667 73 -46 127 -46c57.333 0 103.666 20.333 138.999 61v-55h71z
M420.001 602v89h-72v-89h72zM208.001 602v89h-72v-89h72z" />
    <glyph glyph-name="yacute" unicode="&#xfd;" horiz-adv-x="446" 
d="M436 492h-78.001l-134 -395l-135 395h-78l177 -482l-35 -96c-8 -23.333 -17.5 -39.333 -28.5 -48s-28.5 -13 -52.5 -13h-22v-64h31c18.667 0 36.334 2.66699 53.001 8s31 14 43 26c14 12.667 25.667 32 35 58zM347.999 747h-86l-88 -153h66z" />
    <glyph glyph-name="thorn" unicode="&#xfe;" horiz-adv-x="546" 
d="M481 246c0 45.333 -4.33301 85.8311 -13 121.498s-24.334 64.834 -47.001 87.501c-13.333 13.333 -30.5 23.833 -51.5 31.5s-43.833 11.5 -68.5 11.5c-29.333 0 -55.166 -4.5 -77.499 -13.5s-42.833 -25.5 -61.5 -49.5v277h-72v-932h72v278
c18.667 -24 39.167 -40.667 61.5 -50s48.166 -14 77.499 -14c24.667 0 47.5 3.83301 68.5 11.5s38.167 18.167 51.5 31.5c22.667 22.667 38.334 51.834 47.001 87.501s13 76.167 13 121.5zM409 245.998c0 -27.333 -1.5 -51.833 -4.5 -73.5s-8.83301 -41.167 -17.5 -58.5
s-21.334 -31 -38.001 -41s-37.667 -15 -63 -15s-46.333 5 -63 15s-29.334 23.667 -38.001 41s-14.667 37 -18 59s-5 46.333 -5 73s1.66699 51 5 73s9.33301 41.667 18 59s21.334 31 38.001 41s37.667 15 63 15s46.333 -5 63 -15s29.334 -23.667 38.001 -41
s14.5 -36.833 17.5 -58.5s4.5 -46.167 4.5 -73.5z" />
    <glyph glyph-name="ydieresis" unicode="&#xff;" horiz-adv-x="446" 
d="M436 492h-78.001l-134 -395l-135 395h-78l177 -482l-35 -96c-8 -23.333 -17.5 -39.333 -28.5 -48s-28.5 -13 -52.5 -13h-22v-64h31c18.667 0 36.334 2.66699 53.001 8s31 14 43 26c14 12.667 25.667 32 35 58zM364.999 602v89h-72v-89h72zM152.999 602v89h-72v-89h72z
" />
    <glyph glyph-name="dotlessi" unicode="&#x131;" horiz-adv-x="253" 
d="M162 0v492h-72v-492h72z" />
    <glyph glyph-name="Lslash" unicode="&#x141;" horiz-adv-x="582" 
d="M552 0v68h-363v270l154 98v66l-154 -98v308h-77v-356l-73 -46v-67l73 46v-289h440z" />
    <glyph glyph-name="caron" unicode="&#x2c7;" horiz-adv-x="500" 
d="M409 747h-69l-90 -105l-90 105h-69l125 -153h68z" />
    <glyph glyph-name="breve" unicode="&#x2d8;" horiz-adv-x="500" 
d="M415 727h-55.001c-3.33301 -26 -14.5 -46.167 -33.5 -60.5s-43.833 -21.5 -74.5 -21.5s-55.667 7.16699 -75 21.5s-30.666 34.5 -33.999 60.5h-58c8 -92.667 63.667 -139 167 -139c100.667 0 155 46.333 163 139z" />
    <glyph glyph-name="dotaccent" unicode="&#x2d9;" horiz-adv-x="500" 
d="M290 634v74h-80v-74h80z" />
    <glyph glyph-name="ring" unicode="&#x2da;" horiz-adv-x="500" 
d="M368 687c0 33.333 -11.5 61.333 -34.5 84s-50.833 34 -83.5 34s-60.5 -11.5 -83.5 -34.5s-34.5 -50.833 -34.5 -83.5s11.5 -60.667 34.5 -84s50.833 -35 83.5 -35s60.5 11.667 83.5 35s34.5 51.333 34.5 84zM319 687c0 -19.333 -6.66895 -35.666 -20.002 -48.999
s-29.666 -20 -48.999 -20s-35.666 6.66699 -48.999 20s-20 29.666 -20 48.999s6.83301 35.5 20.5 48.5s29.834 19.5 48.501 19.5c19.333 0 35.666 -6.5 48.999 -19.5s20 -29.167 20 -48.5z" />
    <glyph glyph-name="ogonek" unicode="&#x2db;" horiz-adv-x="500" 
d="M323 -216l-71 149h-66l59 -149h78z" />
    <glyph glyph-name="hungarumlaut" unicode="&#x2dd;" horiz-adv-x="500" 
d="M447 747h-85l-89 -153h65zM284 747h-85l-89 -153h66z" />
    <glyph glyph-name="Delta" unicode="&#x394;" horiz-adv-x="603" 
d="M594 0l-261 712h-63l-262 -712h586zM495 66h-387l194 537z" />
    <glyph glyph-name="Omega" unicode="&#x3a9;" horiz-adv-x="650" 
d="M574 0l0.00683594 67h-83c25.333 20.667 44 43 56 67c12 22 19.5 49.333 22.5 82s4.5 79.334 4.5 140.001c0 46.667 -0.5 82.334 -1.5 107.001s-3.5 48 -7.5 70s-10.5 41.833 -19.5 59.5s-21.833 34.834 -38.5 51.501c-49.333 49.333 -110 74 -182 74
s-132.667 -24.667 -182 -74c-16.667 -16.667 -29.5 -33.834 -38.5 -51.501s-15.5 -37.334 -19.5 -59.001s-6.5 -45 -7.5 -70s-1.5 -60.833 -1.5 -107.5c0 -59.333 1.66699 -105.5 5 -138.5s10.666 -60.833 21.999 -83.5c12.667 -24.667 31 -47 55 -67h-82v-67h195v64
c-22 10.667 -40.167 21.667 -54.5 33s-26.833 25.666 -37.5 42.999s-17.834 42.166 -21.501 74.499s-5.5 78.833 -5.5 139.5c0 40 0.5 72.5 1.5 97.5s3.33301 46.5 7 64.5s8.66699 33.5 15 46.5s15.166 25.167 26.499 36.5c16 16 34.667 28.5 56 37.5
s43.666 13.5 66.999 13.5s45.666 -4.5 66.999 -13.5s40 -21.5 56 -37.5c11.333 -11.333 20.166 -23.5 26.499 -36.5s11.166 -28.333 14.499 -46s5.5 -38.5 6.5 -62.5s1.5 -57.333 1.5 -100c0 -61.333 -1.66699 -108 -5 -140s-10.333 -56.667 -21 -74
s-23.167 -31.666 -37.5 -42.999s-32.5 -22.333 -54.5 -33v-64h195z" />
    <glyph glyph-name="pi" unicode="&#x3c0;" horiz-adv-x="591" 
d="M490 0v492h-389v-492h70v427h250v-427h69z" />
    <glyph glyph-name="fraction" unicode="&#x2044;" horiz-adv-x="185" 
d="M289 712h-60l-333 -712h60z" />
    <glyph glyph-name="partialdiff" unicode="&#x2202;" horiz-adv-x="544" 
d="M453 244l-0.000976562 258.001c0 66 -17.833 118.5 -53.5 157.5s-86.167 58.5 -151.5 58.5c-36 0 -66 -5 -90 -15s-49.333 -27 -76 -51l46 -46c20.667 18 39 30.833 55 38.5s37 11.5 63 11.5c45.333 0 79.166 -14.167 101.499 -42.5s33.5 -63.833 33.5 -106.5v-70
c-18 22 -37.167 37.167 -57.5 45.5s-43.833 12.5 -70.5 12.5c-27.333 0 -52.166 -5 -74.499 -15s-40.833 -22.667 -55.5 -38c-22 -22.667 -37 -49.834 -45 -81.501s-12 -70.5 -12 -116.5c0 -43.333 4 -81 12 -113s23 -59.333 45 -82c34.667 -36.667 80.334 -55 137.001 -55
c56 0 101.333 18.333 136 55c22 22.667 37 50 45 82s12 69.667 12 113zM380.999 244.001c0 -34.667 -2.33301 -64.334 -7 -89.001s-14.667 -45 -30 -61c-22.667 -24 -50.667 -36 -84 -36c-34 0 -62.333 12 -85 36c-15.333 16 -25.333 36.333 -30 61s-7 54.334 -7 89.001
s2.33301 64.5 7 89.5s14.667 45.5 30 61.5c22.667 24 51 36 85 36c33.333 0 61.333 -12 84 -36c15.333 -16 25.333 -36.5 30 -61.5s7 -54.833 7 -89.5z" />
    <glyph glyph-name="product" unicode="&#x220f;" horiz-adv-x="696" 
d="M593 -220v980h-490v-980h76v912h338v-912h76z" />
    <glyph glyph-name="summation" unicode="&#x2211;" horiz-adv-x="551" 
d="M500 -220v68h-356l182 400v69l-180 375h353v68h-441v-64l201 -413l-202 -438v-65h443z" />
    <glyph glyph-name="radical" unicode="&#x221a;" horiz-adv-x="562" 
d="M532 644v68h-146l-184 -576l-115 356h-79l163 -492h61l211 644h89z" />
    <glyph glyph-name="infinity" unicode="&#x221e;" horiz-adv-x="808" 
d="M740 267c0 46 -14.498 84.166 -43.498 114.499s-67.167 45.5 -114.5 45.5c-34 0 -64.5 -8.33301 -91.5 -25s-55.833 -43.667 -86.5 -81c-30 36.667 -58.833 63.5 -86.5 80.5s-57.834 25.5 -90.501 25.5c-47.333 0 -85.833 -15.167 -115.5 -45.5s-44.5 -68.5 -44.5 -114.5
c0 -45.333 14.833 -83.333 44.5 -114s68.167 -46 115.5 -46c33.333 0 63.666 8.33301 90.999 25s56 43.334 86 80.001c30 -36.667 58.667 -63.167 86 -79.5s58 -24.5 92 -24.5c47.333 0 85.5 15 114.5 45s43.5 68 43.5 114zM671.002 265.999
c0 -27.333 -8.5 -49.667 -25.5 -67s-39.167 -26 -66.5 -26c-22.667 0 -43.334 7.5 -62.001 22.5s-41.334 38.5 -68.001 70.5c26.667 32 49.334 55.5 68.001 70.5s39.334 22.5 62.001 22.5c27.333 0 49.5 -8.5 66.5 -25.5s25.5 -39.5 25.5 -67.5zM358.002 265.998
c-26.667 -32.667 -49.167 -56.333 -67.5 -71s-38.833 -22 -61.5 -22c-27.333 0 -49.666 8.5 -66.999 25.5s-26 39.5 -26 67.5s8.66699 50.667 26 68s39.666 26 66.999 26c22.667 0 43 -7.33301 61 -22s40.667 -38.667 68 -72z" />
    <glyph glyph-name="integral" unicode="&#x222b;" horiz-adv-x="372" 
d="M334 653v62h-49c-42.667 0 -76 -12.667 -100 -38s-36 -59.333 -36 -102v-654c0 -51.333 -24.333 -77 -73 -77h-39v-62h50c42.667 0 76 12.667 100 38s36 59.333 36 102v654c0 51.333 24.333 77 73 77h38z" />
    <glyph glyph-name="approxequal" unicode="&#x2248;" horiz-adv-x="539" 
d="M490 366l-45.002 44.998c-18.667 -18.667 -33.5 -30.667 -44.5 -36s-24.167 -8 -39.5 -8c-12 0 -23.667 1.83301 -35 5.5s-25.666 9.5 -42.999 17.5l-5 2c-23.333 10.667 -42 18.334 -56 23.001s-28.667 7 -44 7c-23.333 0 -43.833 -4.66699 -61.5 -14
s-40.167 -27.666 -67.5 -54.999l44 -44c18.667 18.667 33.5 30.667 44.5 36s24.167 8 39.5 8c12 0 23.667 -1.83301 35 -5.5s25.666 -9.5 42.999 -17.5c0.666992 0 1.33398 -0.333008 2.00098 -1c24.667 -10.667 44.334 -18.5 59.001 -23.5s29.667 -7.5 45 -7.5
c23.333 0 43.833 4.5 61.5 13.5s40.167 27.167 67.5 54.5zM489.998 188.998l-45 45c-18.667 -18.667 -33.667 -30.834 -45 -36.501s-24.333 -8.5 -39 -8.5c-11.333 0 -22.166 1.83301 -32.499 5.5s-23.5 9.16699 -39.5 16.5l-5 2c-24 10.667 -43.667 18.5 -59 23.5
s-31 7.5 -47 7.5c-23.333 0 -43.833 -4.5 -61.5 -13.5s-40.167 -27.167 -67.5 -54.5l45 -45c18.667 18.667 33.667 30.834 45 36.501s24.333 8.5 39 8.5c11.333 0 22.166 -1.66699 32.499 -5s23.5 -9 39.5 -17l5 -2c24 -10.667 43.667 -18.5 59 -23.5s31 -7.5 47 -7.5
c23.333 0 43.833 4.5 61.5 13.5s40.167 27.167 67.5 54.5z" />
    <glyph glyph-name="notequal" unicode="&#x2260;" horiz-adv-x="537" 
d="M485 151v66h-224l98 103h126v67h-67l67 70l-45 41l-104 -111h-284v-67h225l-99 -103h-126v-66h67l-67 -71l46 -40l103 111h284z" />
    <glyph glyph-name="lessequal" unicode="&#x2264;" horiz-adv-x="1027" 
d="M862 -31l-557 558l515 -1l-66 67h-565v-564l67 -67v516l557 -558z" />
    <glyph glyph-name="greaterequal" unicode="&#x2265;" horiz-adv-x="1027" 
d="M838 29v564h-565l-66 -67l515 1l-557 -558l49 -49l557 558v-516z" />
    <glyph glyph-name="lozenge" unicode="&#x25ca;" horiz-adv-x="649" 
d="M582 352l-257 364l-258 -364l258 -364zM501 352l-176 -255l-177 255l177 253z" />
    <glyph glyph-name="fi" unicode="&#xf001;" horiz-adv-x="562" 
d="M476 639v74h-82v-74h82zM471 0v489h-72v-489h72zM282 434l-0.000976562 55.002h-105v91c0 23.333 5.33301 41.166 16 53.499s27.334 18.5 50.001 18.5h39v62h-52c-40 0 -70.833 -12.333 -92.5 -37s-32.5 -56.334 -32.5 -95.001v-93h-63v-55h63v-434h72v434h105z" />
    <glyph glyph-name="fl" unicode="&#xf002;" horiz-adv-x="602" 
d="M573 0l0.000976562 61.999h-40c-24 0 -41 5.83301 -51 17.5s-15 29.834 -15 54.501v578h-72v-581c0 -39.333 10.667 -71 32 -95s52.666 -36 93.999 -36h52zM282.001 433.999l-0.000976562 55.002h-105v91c0 23.333 5.33301 41.166 16 53.499s27.334 18.5 50.001 18.5h39
v62h-52c-40 0 -70.833 -12.333 -92.5 -37s-32.5 -56.334 -32.5 -95.001v-93h-63v-55h63v-434h72v434h105z" />
    <glyph glyph-name=".null" horiz-adv-x="0" 
 />
    <glyph glyph-name="nonmarkingreturn" horiz-adv-x="249" 
 />
    </font>
</defs>
</svg>
